<svg xmlns="http://www.w3.org/2000/svg" xmlns:xlink="http://www.w3.org/1999/xlink" style="background-color:transparent" width="389.8400000000001" height="159.06"><path stroke="white" fill="none" stroke-width="1" d="M13.61 21.11L14.61 21.16 15.61 21.26 16.59 21.43 17.56 21.68 18.49 22.04 19.35 22.55 20.06 23.25 20.56 24.11 20.97 25.02 21.27 25.98 21.4 26.97 21.47 27.97 21.49 28.96 21.5 29.97 21.5 49.97 21.67 50.5 22.34 49.76 23.07 49.08 23.85 48.45 24.68 47.9 25.55 47.4 26.45 46.98 27.1 46.74 27.1 63.89 27.03 63.91 26.13 64.35 25.3 64.9 24.55 65.56 23.88 66.3 23.29 67.11 22.77 67.96 22.34 68.87 22.02 69.82 21.81 70.79 21.71 71.78 21.72 72.78 21.86 73.77 22.12 74.74 22.49 75.66 22.97 76.55 23.54 77.37 24.15 78.1 24.86 78.8 25.65 79.42 26.51 79.93 27.1 80.19 27.1 97.34 26.99 97.31 26.07 96.98 25.14 96.56 24.28 96.09 23.44 95.53 22.67 94.89 21.97 94.2 21.32 93.42 21.06 94.35 20.65 95.26 20.06 96.04 19.3 96.72 18.46 97.23 17.53 97.62 16.58 97.9 15.59 98.1 14.6 98.22 13.6 98.28 12.61 98.3 11.61 98.28 10.61 98.21 9.62 98.1 8.64 97.91 7.67 97.64 6.76 97.25 5.91 96.71 5.23 95.98 4.77 95.09 4.43 94.16 4.19 93.19 4.08 92.2 4.03 91.2 4 90.2 4 29.2 4.02 28.2 4.07 27.2 4.17 26.21 4.41 25.23 4.77 24.3 5.24 23.41 5.91 22.7 6.76 22.15 7.68 21.77 8.64 21.49 9.63 21.31 10.62 21.19 11.62 21.12 12.62 21.1ZM33.9 45.82L34.89 45.9 35.88 46.03 36.86 46.21 37.83 46.43 38.81 46.72 39.75 47.05 40.68 47.43 41.57 47.84 42.46 48.3 43.33 48.81 44.18 49.35 45.01 49.93 45.79 50.52 46.57 51.16 47.31 51.8 48.05 52.49 48.78 53.21 49.45 53.92 50.12 54.66 50.76 55.43 51.38 56.21 51.97 57.02 52.54 57.85 53.07 58.7 53.57 59.57 54.03 60.45 54.46 61.36 54.85 62.28 55.21 63.21 55.53 64.16 55.81 65.12 56.05 66.09 56.25 67.07 56.41 68.05 56.54 69.04 56.63 70.04 56.68 71.04 56.7 72.04 56.68 73.04 56.63 74.04 56.54 75.03 56.42 76.02 56.26 77.01 56.06 77.99 55.82 78.96 55.54 79.92 55.22 80.87 54.87 81.8 54.48 82.72 54.05 83.63 53.59 84.51 53.09 85.38 52.56 86.23 52 87.06 51.4 87.87 50.79 88.66 50.14 89.42 49.48 90.16 48.77 90.9 48.07 91.59 47.34 92.28 46.6 92.92 45.82 93.56 45.01 94.18 44.21 94.73 43.36 95.28 42.49 95.79 41.62 96.24 40.71 96.66 39.78 97.04 38.83 97.37 37.88 97.63 36.9 97.86 35.89 98.03 34.9 98.14 33.91 98.19 32.91 98.2 32.1 98.17 32.1 80.61 32.35 80.57 33.31 80.29 34.23 79.89 35.09 79.38 35.88 78.78 36.61 78.09 37.27 77.34 37.86 76.53 38.36 75.66 38.75 74.74 39.02 73.78 39.17 72.8 39.19 71.8 39.1 70.8 38.9 69.83 38.58 68.88 38.15 67.97 37.63 67.12 37.03 66.32 36.36 65.58 35.6 64.92 34.77 64.37 33.88 63.94 32.93 63.62 32.1 63.44 32.1 45.82 32.32 45.81 32.9 45.8Z"></path><path stroke="white" fill="none" stroke-width="1" d="M91.88 44.61L92.88 44.72 93.87 44.86 94.85 45.04 95.82 45.26 96.79 45.52 97.75 45.81 98.69 46.13 99.62 46.5 100.54 46.9 101.44 47.33 102.33000000000001 47.8 103.19 48.3 104.04 48.83 104.87 49.39 105.69 49.97 106.48 50.59 107.25 51.22 108 51.88 108.73 52.56 109.43 53.27 110.12 54 110.77000000000001 54.75 111.4 55.53 111.99000000000001 56.34 112.56 57.16 113.08000000000001 58.01 113.58000000000001 58.88 114.04 59.77 114.46000000000001 60.67 114.84 61.59 115.19 62.53 115.5 63.48 115.77000000000001 64.45 116.01 65.42 116.21000000000001 66.4 116.37 67.39 116.5 68.39 116.6 69.38 116.66 70.38 116.69 71.38 116.7 72.37 116.67 73.37 116.61 74.37 116.52000000000001 75.36 116.39 76.36 116.22 77.34 116.02000000000001 78.32 115.78 79.29 115.5 80.26 115.18 81.2 114.83000000000001 82.14 114.44 83.06 114.01 83.96 113.55000000000001 84.85 113.05000000000001 85.72 112.52000000000001 86.56 111.96000000000001 87.39 111.38 88.2 110.77000000000001 88.99 110.13 89.76 109.47 90.51 108.78 91.24 108.07 91.95 107.33000000000001 92.62 106.57 93.27 105.78 93.89 104.97 94.47 104.14 95.02 103.28 95.54 102.4 96.02 101.51 96.46 100.6 96.88 99.68 97.27 98.74000000000001 97.62 97.80000000000001 97.95 96.84 98.24 95.87 98.49 94.9 98.71 93.92 98.9 92.93 99.05 91.94 99.17 91.7 99.19 91.7 81.3 91.97 81.23 92.91 80.87 93.80000000000001 80.43 94.67 79.92 95.5 79.35 96.27000000000001 78.73 96.96000000000001 78.02 97.56 77.22 98.06 76.35 98.44 75.43 98.72 74.46 98.89 73.48 98.98 72.48 99 71.47 98.94 70.48 98.80000000000001 69.49 98.58000000000001 68.52 98.25 67.58 97.80000000000001 66.68 97.25 65.85 96.59 65.1 95.83000000000001 64.45 95.02000000000001 63.87 94.16 63.36 93.25 62.93 92.32 62.58 91.7 62.41 91.7 44.6ZM86.7 62.43L86.41 62.5 85.46000000000001 62.83 84.55000000000001 63.25 83.68 63.75 82.86 64.32 82.09 64.95 81.41 65.67 80.81 66.48 80.32000000000001 67.35 79.95 68.27 79.68 69.25 79.51 70.23 79.42 71.22 79.4 72.21 79.46000000000001 73.23 79.6 74.21 79.83 75.18 80.17 76.13 80.61 77.01 81.18 77.85 81.84 78.59 82.6 79.25 83.42 79.83 84.27000000000001 80.36 85.16 80.81 86.09 81.18 86.7 81.36 86.7 99.18 85.95 99.1 84.96000000000001 98.96 83.98 98.78 83 98.56 82.03 98.31 81.07000000000001 98.02 80.13 97.7 79.19 97.34 78.27000000000001 96.95 77.36 96.53 76.47 96.09 75.59 95.61 74.73 95.1 73.89 94.56 73.07000000000001 93.98 72.28 93.38 71.5 92.75 70.75 92.08 70.03 91.4 69.32000000000001 90.68 68.64 89.95 67.99000000000001 89.19 67.36 88.41 66.76 87.61 66.18 86.8 65.63 85.96 65.11 85.11 64.62 84.24 64.17 83.35 63.760000000000005 82.44 63.38 81.51 63.040000000000006 80.57 62.74 79.62 62.480000000000004 78.65 62.260000000000005 77.68 62.07 76.69 61.93 75.7 61.82 74.71 61.74 73.71 61.71 72.71 61.7 72.1 61.71 71.11 61.760000000000005 70.11 61.84 69.11 61.95 68.12 62.09 67.12 62.27 66.14 62.480000000000004 65.16 62.74 64.19 63.02 63.23 63.35 62.29 63.71 61.35 64.12 60.44 64.55 59.54 65.03 58.66 65.53 57.8 66.08 56.96 66.65 56.15 67.26 55.35 67.9 54.58 68.57000000000001 53.83 69.26 53.11 69.98 52.42 70.71000000000001 51.75 71.47 51.1 72.24000000000001 50.47 73.04 49.86 73.86 49.28 74.7 48.73 75.55000000000001 48.21 76.42 47.71 77.31 47.25 78.22 46.83 79.14 46.44 80.07000000000001 46.08 81.02000000000001 45.76 81.97 45.47 82.94 45.22 83.92 45.01 84.9 44.84 85.89 44.7 86.7 44.62Z"></path><path stroke="white" fill="none" stroke-width="1" d="M167.7 21.14L168.7 21.21 169.69 21.33 170.67 21.53 171.63 21.81 172.52999999999997 22.25 173.29999999999998 22.88 173.89 23.69 174.31 24.59 174.64999999999998 25.53 174.85999999999999 26.51 174.94 27.51 174.98 28.5 175 29.51 175 89.5 174.98999999999998 90.51 174.97 91.51 174.91 92.5 174.76999999999998 93.49 174.47 94.44 174.04 95.35 173.48999999999998 96.18 172.73999999999998 96.83 171.85999999999999 97.32 170.92 97.66 169.95 97.91 168.97 98.08 167.98 98.2 166.98 98.26 165.98 98.3 164.98 98.29 163.98 98.24 162.98 98.12 162.01999999999998 97.91 161.06 97.59 160.17 97.16 159.35999999999999 96.57 158.67999999999998 95.83 158.17 94.97 157.82999999999998 94.03 157.47 93.66 156.76 94.37 156.01 95.03 155.22 95.62 154.38 96.16 153.48999999999998 96.63 152.57999999999998 97.04 151.64 97.38 151.6 97.39 151.6 80.27 152.41 79.93 153.26 79.41 154.04999999999998 78.79 154.76 78.09 155.39999999999998 77.32 155.95999999999998 76.5 156.42999999999998 75.61 156.79999999999998 74.68 157.04999999999998 73.71 157.17999999999998 72.73 157.19 71.73 157.07999999999998 70.73 156.87 69.76 156.52999999999997 68.82 156.1 67.91 155.57999999999998 67.06 154.98 66.26 154.31 65.52 153.56 64.86 152.72 64.32 151.82 63.89 151.6 63.82 151.6 46.68 152.17999999999998 46.89 153.1 47.29 153.98 47.76 154.82 48.3 155.60999999999999 48.9 156.35999999999999 49.56 157.04999999999998 50.28 157.5 50.49 157.5 29.49 157.51 28.49 157.54999999999998 27.49 157.63 26.49 157.82999999999998 25.51 158.16 24.57 158.54999999999998 23.75 159.12 22.93 159.89 22.3 160.77999999999997 21.85 161.73999999999998 21.55 162.72 21.35 163.70999999999998 21.22 164.7 21.14 165.70999999999998 21.1 166.7 21.1ZM146.6 45.81L146.6 63.48 145.92 63.63 144.97 63.96 144.07999999999998 64.4 143.25 64.96 142.5 65.62 141.83999999999997 66.36 141.23999999999998 67.17 140.72 68.03 140.29999999999998 68.93 139.98999999999998 69.88 139.79 70.86 139.7 71.86 139.73 72.85 139.89 73.84 140.17 74.8 140.57 75.72 141.07 76.58 141.67 77.39 142.29999999999998 78.1 143.02999999999997 78.78 143.82 79.39 144.69 79.9 145.6 80.29 146.56 80.58 146.6 80.59 146.6 98.19 145.70999999999998 98.2 144.72 98.16 143.72 98.07 142.73999999999998 97.93 141.76 97.74 140.79 97.51 139.82999999999998 97.22 138.89 96.88 137.97 96.5 137.06 96.07 136.17 95.6 135.29999999999998 95.09 134.45999999999998 94.54 133.64 93.96 132.85999999999999 93.36 132.07999999999998 92.72 131.33999999999997 92.07 130.60999999999999 91.38 129.89999999999998 90.66 129.22 89.94 128.56 89.19 127.91999999999999 88.42 127.30999999999999 87.63 126.72999999999999 86.81 126.17999999999999 85.98 125.65999999999998 85.12 125.16999999999999 84.25 124.71999999999998 83.35 124.29999999999998 82.45 123.91999999999999 81.52 123.57999999999998 80.58 123.26999999999998 79.63 123.00999999999999 78.67 122.77999999999999 77.69 122.58999999999999 76.71 122.43999999999998 75.72 122.32999999999998 74.73 122.24999999999999 73.73 122.21 72.73 122.19999999999999 71.73 122.22999999999999 70.73 122.28999999999999 69.74 122.38999999999999 68.74 122.52999999999999 67.75 122.71 66.77 122.91999999999999 65.79 123.16999999999999 64.82 123.46999999999998 63.87 123.79999999999998 62.92 124.15999999999998 61.99 124.57 61.08 125.00999999999999 60.18 125.47999999999999 59.3 125.99 58.44 126.52999999999999 57.6 127.1 56.77 127.69999999999999 55.97 128.32999999999998 55.19 128.98 54.43 129.64999999999998 53.7 130.35 52.98 131.07 52.28 131.82 51.6 132.56 50.96 133.35 50.33 134.14 49.75 134.97 49.18 135.82999999999998 48.65 136.70999999999998 48.16 137.60999999999999 47.71 138.5 47.31 139.42999999999998 46.94 140.39 46.63 141.37 46.36 142.33999999999997 46.15 143.32 45.98 144.31 45.87 145.31 45.81 146.29999999999998 45.8Z"></path><path stroke="white" fill="none" stroke-width="1" d="M225.7 81.9L226.61 82.3 227.43 82.87 228.14 83.56 228.78 84.35 229.32999999999998 85.18 229.82 86.05 230.24 86.95 230.61 87.89 230.91 88.84 231.12 89.82 231.2 90.81 231.13 91.81 230.91 92.77 230.51 93.71 230 94.53 229.31 95.31 228.55 95.97 227.77 96.51 226.88 97.01 225.96 97.44 225.02 97.81 224.07 98.12 223.12 98.39 222.16 98.62 221.18 98.82 220.17000000000002 99 219.21 99.14 218.2 99.27 217.23 99.38 216.2 99.47 215.21 99.54 214.23 99.6 213.25 99.64 212.23 99.67 211.22 99.69 210.22 99.7 210.15 99.7 210.15 84.4 211.09 84.39 212.09 84.37 213.09 84.32 214.1 84.24 215.07999999999998 84.14 216.07 84 217.06 83.82 218.03 83.59 218.99 83.31 219.93 82.97 220.86 82.6 221.78 82.23 222.74 81.94 223.72 81.74 224.71 81.71ZM205.15 61.75L204.87 61.91 204.05 62.47 203.26 63.08 202.51 63.75 201.82999999999998 64.48 201.22 65.28 200.71 66.14 200.35 67.06 200.14 68.04 200.1 68.7 205.15 68.7 205.15 77.8 200.42000000000002 77.8 200.38 78.67 200.69 79.62 201.2 80.48 201.86 81.23 202.63 81.87 203.46 82.42 204.32999999999998 82.9 205.15 83.29 205.15 99.42 204.25 99.29 203.26 99.13 202.28 98.93 201.3 98.71 200.32999999999998 98.45 199.38 98.15 198.43 97.83 197.5 97.47 196.59 97.08 195.69 96.66 194.8 96.2 193.93 95.71 193.07 95.18 192.24 94.62 191.43 94.03 190.65 93.4 189.9 92.73 189.19 92.03 188.52 91.29 187.89 90.52 187.29 89.72 186.71 88.91 186.15 88.08 185.62 87.23 185.12 86.37 184.65 85.48 184.2 84.59 183.79 83.67 183.41 82.75 183.07 81.81 182.76 80.86 182.48 79.9 182.24 78.93 182.03 77.95 181.86 76.97 181.72 75.98 181.62 74.98 181.55 73.98 181.51 72.99 181.5 71.99 181.52 71 181.57 70.01 181.65 69.01 181.75 68.01 181.89 67.02 182.06 66.03 182.27 65.05 182.51 64.07 182.78 63.1 183.09 62.15 183.44 61.21 183.82 60.28 184.24 59.38 184.7 58.49 185.2 57.62 185.72 56.78 186.29 55.95 186.89 55.15 187.51 54.38 188.18 53.63 188.87 52.91 189.58 52.21 190.33 51.54 191.09 50.9 191.88 50.28 192.69 49.7 193.52 49.14 194.37 48.61 195.23 48.12 196.12 47.65 197.02 47.23 197.94 46.83 198.87 46.47 199.82 46.14 200.77 45.84 201.74 45.58 202.72 45.35 203.7 45.15 204.69 44.99 205.15 44.92ZM210.65 44.61L211.66 44.64 212.67000000000002 44.7 213.68 44.78 214.65 44.9 215.65 45.06 216.6 45.24 217.59 45.46 218.56 45.72 219.52 46.02 220.47 46.37 221.4 46.75 222.28 47.16 223.17000000000002 47.63 224.03 48.14 224.89 48.7 225.69 49.29 226.46 49.92 227.2 50.58 227.91 51.28 228.57999999999998 52.02 229.22 52.78 229.82999999999998 53.58 230.4 54.4 230.93 55.25 231.42000000000002 56.12 231.87 57.01 232.27 57.93 232.63 58.86 232.94 59.81 233.21 60.78 233.42000000000002 61.75 233.59 62.74 233.71 63.73 233.78 64.73 233.8 65.75 233.78 66.74 233.71 67.75 233.59 68.74 233.41 69.73 233.16 70.7 232.84 71.64 232.44 72.54 231.93 73.42 231.34 74.21 230.65 74.94 229.91 75.6 229.1 76.2 228.24 76.72 227.34 77.15 226.39 77.47 225.42000000000002 77.69 224.42000000000002 77.79 223.42000000000002 77.8 210.15 77.8 210.15 68.7 212.1 68.7 213.1 68.69 214.09 68.57 215.04 68.24 215.82 67.63 216.31 66.77 216.49 65.79 216.46 64.79 216.23 63.82 215.78 62.93 215.15 62.15 214.37 61.52 213.49 61.05 212.55 60.73 211.57 60.53 210.57999999999998 60.42 210.15 60.41 210.15 44.6Z"></path><path stroke="white" fill="none" stroke-width="1" d="M252.37 100.15L253.32000000000002 100.44 254.19 100.93 255 101.52 255.81 102.1 256.66 102.64 257.53000000000003 103.12 258.43 103.56 259.36 103.95 260.3 104.28 261.26 104.54 262.24 104.75 263.05 104.86 263.05 121.05 262.62 121.02 261.62 120.94 260.63 120.81 259.64 120.66 258.66 120.47 257.68 120.25 256.72 120 255.76000000000002 119.71 254.81 119.4 253.87 119.05 252.94 118.67 252.03 118.26 251.13000000000002 117.83 250.24 117.37 249.37 116.89 248.5 116.37 247.67000000000002 115.85 246.84 115.28 246.03 114.67 245.29000000000002 114.03 244.58 113.3 243.98000000000002 112.5 243.55 111.61 243.4 110.63 243.46 109.63 243.62 108.64 243.89000000000001 107.68 244.27 106.76 244.75 105.88 245.31 105.05 245.95000000000002 104.28 247.31 102.82 248.01000000000002 102.1 248.74 101.41 249.51000000000002 100.78 250.4 100.33 251.38000000000002 100.12ZM282.96000000000004 45.52L283.96000000000004 45.57 284.96000000000004 45.66 285.96000000000004 45.8 286.92 46.01 287.86 46.36 288.71000000000004 46.89 289.41 47.6 289.91 48.47 290.3 49.38 290.59000000000003 50.35 290.72 51.34 290.77 52.33 290.8 53.33 290.8 95.33 290.79 96.33 290.75 97.32 290.67 98.32 290.56 99.31 290.42 100.31 290.24 101.29 290.01 102.27 289.75 103.24 289.45 104.19 289.11 105.14 288.73 106.06 288.3 106.96 287.84000000000003 107.85 287.33000000000004 108.71 286.79 109.55 286.21000000000004 110.36 285.6 111.15 284.95 111.91 284.27 112.65 283.56 113.35 282.83000000000004 114.03 282.07 114.68 281.29 115.3 280.5 115.9 279.68 116.48 278.84000000000003 117.03 277.98 117.55 277.11 118.04 276.22 118.5 275.31 118.92 274.39 119.3 273.45 119.65 272.5 119.97 271.54 120.24 270.57 120.48 269.59000000000003 120.68 268.6 120.83 268.05 120.9 268.05 104.46 268.15000000000003 104.43 269.05 103.98 269.87 103.42 270.62 102.76 271.29 102.01 271.88 101.21 272.39 100.35 272.82 99.45 273.16 98.51 273.42 97.54 273.59000000000003 96.55 273.68 95.56 273.7 94.8 273.7 91.8 273.07 92.56 272.36 93.28 271.59000000000003 93.93 270.77 94.51 269.92 95.01 269.01 95.45 268.1 95.81 268.05 95.83 268.05 79.11 268.08000000000004 79.1 268.96000000000004 78.62 269.77 78.04 270.51 77.36 271.16 76.61 271.75 75.8 272.25 74.93 272.64 74.01 272.92 73.05 273.07 72.06 273.1 71.06 273 70.07 272.79 69.09 272.46000000000004 68.15 272.03000000000003 67.24 271.51 66.39 270.91 65.59 270.24 64.85 269.49 64.2 268.65000000000003 63.66 268.05 63.38 268.05 46.85 268.59000000000003 47.08 269.49 47.51 270.37 47.98 271.23 48.51 272.01 49.12 272.71000000000004 49.84 273.36 50.6 273.83000000000004 50.95 274.02 49.97 274.34000000000003 49.02 274.8 48.14 275.42 47.35 276.18 46.7 277.06 46.22 278 45.9 278.98 45.69 279.97 45.56 280.97 45.51 281.97 45.5ZM262.79 45.71L263.05 45.73 263.05 62.83 262.81 62.86 261.84000000000003 63.09 260.91 63.45 260.03000000000003 63.92 259.22 64.51 258.49 65.19 257.84000000000003 65.95 257.26 66.77 256.77 67.64 256.38 68.56 256.1 69.52 255.94 70.51 255.9 71.35 255.96 72.35 256.15000000000003 73.33 256.47 74.27 256.91 75.17 257.45 76.02 258.07 76.8 258.77 77.51 259.54 78.15 260.37 78.7 261.27 79.15 262.21000000000004 79.48 263.05 79.66 263.05 96.76 262.21000000000004 96.79 261.2 96.8 260.2 96.75 259.22 96.64 258.21000000000004 96.47 257.23 96.25 256.28000000000003 95.98 255.33 95.65 254.4 95.28 253.49 94.85 252.62 94.4 251.75 93.88 250.9 93.33 250.11 92.77 249.3 92.16 248.52 91.51 247.79000000000002 90.86 247.06 90.17 246.34 89.45 245.67000000000002 88.74 245 87.99 244.37 87.22 243.76000000000002 86.42 243.18 85.61 242.63000000000002 84.77 242.11 83.92 241.62 83.04 241.18 82.14 240.77 81.23 240.39000000000001 80.31 240.06 79.36 239.77 78.41 239.51000000000002 77.44 239.3 76.47 239.12 75.48 238.98000000000002 74.49 238.89000000000001 73.5 238.83 72.5 238.8 71.5 238.81 70.5 238.86 69.5 238.94 68.5 239.06 67.51 239.23000000000002 66.52 239.43 65.54 239.67000000000002 64.57 239.94 63.61 240.26000000000002 62.67 240.62 61.73 241.02 60.82 241.45000000000002 59.91 241.92000000000002 59.03 242.42000000000002 58.17 242.96 57.32 243.53 56.5 244.13000000000002 55.69 244.76000000000002 54.91 245.41000000000003 54.16 246.08 53.42 246.78 52.7 247.5 52 248.25 51.33 249 50.69 249.79000000000002 50.07 250.58 49.49 251.42000000000002 48.93 252.28 48.4 253.16000000000003 47.92 254.07000000000002 47.48 254.96 47.09 255.9 46.74 256.86 46.43 257.84000000000003 46.18 258.82 45.98 259.8 45.84 260.79 45.74 261.79 45.7Z"></path><path stroke="white" fill="none" stroke-width="1" d="M321.93 45.82L322.1 45.83 322.1 63.33 321.65000000000003 63.4 320.68 63.66 319.76 64.05 318.90000000000003 64.54 318.1 65.15 317.39 65.85 316.75 66.61 316.18 67.43 315.69 68.31 315.3 69.23 315.01 70.19 314.85 71.17 314.8 72.1 314.86 73.1 315.05 74.08 315.36 75.03 315.79 75.93 316.33000000000004 76.78 316.95 77.56 317.64 78.28 318.39 78.93 319.22 79.5 320.1 79.96 321.04 80.31 322.01 80.55 322.1 80.56 322.1 98.17 321.27 98.2 320.26 98.19 319.27 98.14 318.28000000000003 98.04 317.3 97.88 316.29 97.65 315.34000000000003 97.39 314.39 97.07 313.45 96.7 312.54 96.29 311.67 95.84 310.79 95.34 309.94 94.8 309.14 94.25 308.33 93.64 307.54 93 306.8 92.36 306.06 91.68 305.34000000000003 90.97 304.65000000000003 90.25 303.98 89.51 303.34000000000003 88.75 302.72 87.96 302.12 87.16 301.56 86.33 301.02000000000004 85.49 300.52000000000004 84.62 300.05 83.74 299.61 82.84 299.21000000000004 81.92 298.85 80.99 298.53000000000003 80.04 298.24 79.09 298 78.12 297.79 77.14 297.62 76.15 297.48 75.16 297.39 74.17 297.33 73.17 297.3 72.17 297.31 71.17 297.36 70.17 297.44 69.17 297.55 68.18 297.71000000000004 67.19 297.90000000000003 66.21 298.14 65.24 298.41 64.28 298.72 63.33 299.07 62.39 299.45 61.47 299.87 60.56 300.33 59.67 300.82 58.8 301.35 57.95 301.91 57.12 302.5 56.31 303.11 55.52 303.75 54.75 304.42 54.01 305.1 53.29 305.81 52.58 306.55 51.89 307.29 51.24 308.07 50.6 308.85 50.01 309.67 49.43 310.52000000000004 48.88 311.39 48.37 312.28000000000003 47.9 313.19 47.47 314.09000000000003 47.1 315.04 46.76 316.01 46.47 316.98 46.24 317.96000000000004 46.05 318.95 45.92 319.94 45.83 320.94 45.8ZM342.09000000000003 45.72L343.08000000000004 45.76 344.08000000000004 45.83 345.07 45.95 346.05 46.13 347.01 46.41 347.91 46.84 348.69 47.47 349.28000000000003 48.27 349.71000000000004 49.17 350.05 50.11 350.26 51.09 350.34000000000003 52.09 350.38 53.08 350.40000000000003 54.09 350.40000000000003 90.08 350.38 91.08 350.33000000000004 92.08 350.23 93.08 350.01 94.05 349.67 94.99 349.23 95.89 348.57 96.63 347.74 97.21 346.83000000000004 97.61 345.87 97.88 344.88 98.06 343.90000000000003 98.16 342.89 98.2 341.89 98.19 340.89 98.17 339.89 98.1 338.90000000000003 98 337.92 97.85 336.94 97.62 336 97.28 335.14 96.77 334.41 96.09 333.84000000000003 95.28 333.42 94.36 333.17 93.39 332.81 93.3 332.17 94.06 331.46000000000004 94.78 330.68 95.42 329.86 95.99 329 96.48 328.09000000000003 96.91 327.17 97.26 327.1 97.28 327.1 80 327.82 79.65 328.65000000000003 79.1 329.41 78.45 330.09000000000003 77.72 330.71000000000004 76.94 331.24 76.09 331.68 75.19 332 74.24 332.21000000000004 73.26 332.3 72.27 332.27 71.27 332.12 70.28 331.86 69.32 331.49 68.39 331.02 67.5 330.47 66.67 329.85 65.89 329.15000000000003 65.17 328.37 64.55 327.51 64.05 327.1 63.88 327.1 46.92 327.74 47.19 328.65000000000003 47.62 329.53000000000003 48.08 330.38 48.6 331.17 49.22 331.87 49.93 332.53000000000003 50.68 333 51.3 333.17 50.31 333.47 49.37 333.94 48.48 334.56 47.71 335.33000000000004 47.06 336.19 46.57 337.13 46.2 338.11 45.95 339.08000000000004 45.8 340.09000000000003 45.72 341.08000000000004 45.7Z"></path></svg>