<svg xmlns="http://www.w3.org/2000/svg" xmlns:xlink="http://www.w3.org/1999/xlink" style="background-color:transparent" width="389.8400000000001" height="159.06"><path stroke="white" fill="transparent" d="M32.90 44.80L32.90 44.80L32.90 44.80Q41.80 44.80 49.25 52.70L49.25 52.70L49.25 52.70Q56.70 60.60 56.70 71.05L56.70 71.05L56.70 71.05Q56.70 81.50 49.30 89.35L49.30 89.35L49.30 89.35Q41.90 97.20 33.40 97.20L33.40 97.20L33.40 97.20Q24.90 97.20 21.30 92.40L21.30 92.40L21.30 92.40Q20.50 97.30 12.70 97.30L12.70 97.30L12.70 97.30Q6.40 97.30 5 94.60L5 94.60L5 94.60Q4.30 93.10 4.15 91.95L4.15 91.95L4.15 91.95Q4 90.80 4 88.50L4 88.50L4 28.80L4 28.80Q4 26.50 4.15 25.35L4.15 25.35L4.15 25.35Q4.30 24.20 5 22.80L5 22.80L5 22.80Q6.40 20.10 12.80 20.10L12.80 20.10L12.80 20.10Q19.10 20.10 20.40 22.80L20.40 22.80L20.40 22.80Q21.20 24.30 21.35 25.45L21.35 25.45L21.35 25.45Q21.50 26.60 21.50 28.90L21.50 28.90L21.50 49.70L21.50 49.70Q25.50 44.80 32.90 44.80ZM24.15 77.10L24.15 77.10L24.15 77.10Q26.60 79.80 30.30 79.80L30.30 79.80L30.30 79.80Q34 79.80 36.60 77.10L36.60 77.10L36.60 77.10Q39.20 74.40 39.20 71.10L39.20 71.10L39.20 71.10Q39.20 67.80 36.80 65.05L36.80 65.05L36.80 65.05Q34.40 62.30 30.40 62.30L30.40 62.30L30.40 62.30Q26.40 62.30 24.05 65.10L24.05 65.10L24.05 65.10Q21.70 67.90 21.70 71.15L21.70 71.15L21.70 71.15Q21.70 74.40 24.15 77.10Z"></path><path stroke="white" fill="transparent" d="M61.70 71.10L61.70 71.10Q61.70 59.10 70.10 51.30L70.10 51.30L70.10 51.30Q78.50 43.50 89.30 43.50L89.30 43.50L89.30 43.50Q100.10 43.50 108.40 51.25L108.40 51.25L108.40 51.25Q116.70 59 116.70 71L116.70 71L116.70 71Q116.70 79.30 112.40 85.75L112.40 85.75L112.40 85.75Q108.10 92.20 101.95 95.25L101.95 95.25L101.95 95.25Q95.80 98.30 89.20 98.30L89.20 98.30L89.20 98.30Q82.60 98.30 76.40 95.05L76.40 95.05L76.40 95.05Q70.20 91.80 65.95 85.45L65.95 85.45L65.95 85.45Q61.70 79.10 61.70 71.10L61.70 71.10ZM82.60 78.25L82.60 78.25L82.60 78.25Q85.80 80.70 89.10 80.70L89.10 80.70L89.10 80.70Q92.40 80.70 95.70 78.20L95.70 78.20L95.70 78.20Q99 75.70 99 70.80L99 70.80L99 70.80Q99 65.90 95.90 63.50L95.90 63.50L95.90 63.50Q92.80 61.10 89.20 61.10L89.20 61.10L89.20 61.10Q85.60 61.10 82.50 63.60L82.50 63.60L82.50 63.60Q79.40 66.10 79.40 70.95L79.40 70.95L79.40 70.95Q79.40 75.80 82.60 78.25Z"></path><path stroke="white" fill="transparent" d="M158.55 22.75L158.55 22.75L158.55 22.75Q159.30 21.30 161.20 20.70L161.20 20.70L161.20 20.70Q163.10 20.10 166.25 20.10L166.25 20.10L166.25 20.10Q169.40 20.10 171.30 20.70L171.30 20.70L171.30 20.70Q173.20 21.30 173.95 22.80L173.95 22.80L173.95 22.80Q174.70 24.30 174.85 25.45L174.85 25.45L174.85 25.45Q175 26.60 175 28.90L175 28.90L175 88.60L175 88.60Q175 90.90 174.85 92.05L174.85 92.05L174.85 92.05Q174.70 93.20 173.90 94.60L173.90 94.60L173.90 94.60Q172.40 97.30 165.45 97.30L165.45 97.30L165.45 97.30Q158.50 97.30 157.70 92.40L157.70 92.40L157.70 92.40Q153.50 97.20 146 97.20L146 97.20L146 97.20Q137 97.20 129.60 89.35L129.60 89.35L129.60 89.35Q122.20 81.50 122.20 71.05L122.20 71.05L122.20 71.05Q122.20 60.60 129.65 52.70L129.65 52.70L129.65 52.70Q137.10 44.80 146 44.80L146 44.80L146 44.80Q153.40 44.80 157.50 49.80L157.50 49.80L157.50 28.80L157.50 28.80Q157.50 26.50 157.65 25.35L157.65 25.35L157.65 25.35Q157.80 24.20 158.55 22.75ZM142.30 77.10L142.30 77.10L142.30 77.10Q144.90 79.80 148.60 79.80L148.60 79.80L148.60 79.80Q152.30 79.80 154.75 77.10L154.75 77.10L154.75 77.10Q157.20 74.40 157.20 71.15L157.20 71.15L157.20 71.15Q157.20 67.90 154.85 65.10L154.85 65.10L154.85 65.10Q152.50 62.30 148.50 62.30L148.50 62.30L148.50 62.30Q144.50 62.30 142.10 65.05L142.10 65.05L142.10 65.05Q139.70 67.80 139.70 71.10L139.70 71.10L139.70 71.10Q139.70 74.40 142.30 77.10Z"></path><path stroke="white" fill="transparent" d="M233.80 64.75L233.80 64.75L233.80 64.75Q233.80 70.90 230.75 73.85L230.75 73.85L230.75 73.85Q227.70 76.80 224 76.80L224 76.80L200.30 76.80L200.30 76.80Q200.30 79.60 203.60 81.50L203.60 81.50L203.60 81.50Q206.90 83.40 210.20 83.40L210.20 83.40L210.20 83.40Q216 83.40 219.30 82.20L219.30 82.20L220.40 81.80L220.40 81.80Q222.80 80.70 224.40 80.70L224.40 80.70L224.40 80.70Q227.60 80.70 229.90 85.20L229.90 85.20L229.90 85.20Q231.20 87.90 231.20 89.80L231.20 89.80L231.20 89.80Q231.20 98.70 209.90 98.70L209.90 98.70L209.90 98.70Q202.50 98.70 196.75 96.15L196.75 96.15L196.75 96.15Q191 93.60 187.80 89.40L187.80 89.40L187.80 89.40Q181.50 81.30 181.50 71.30L181.50 71.30L181.50 71.30Q181.50 58.70 189.65 51.15L189.65 51.15L189.65 51.15Q197.80 43.60 210 43.60L210 43.60L210 43.60Q223.90 43.60 230.40 53.40L230.40 53.40L230.40 53.40Q233.80 58.60 233.80 64.75ZM200.10 67.70L212.70 67.70L212.70 67.70Q216.50 67.70 216.50 64.50L216.50 64.50L216.50 64.50Q216.50 62.20 214.75 60.80L214.75 60.80L214.75 60.80Q213 59.40 209.75 59.40L209.75 59.40L209.75 59.40Q206.50 59.40 203.30 62.05L203.30 62.05L203.30 62.05Q200.10 64.70 200.10 67.70L200.10 67.70Z"></path><path stroke="white" fill="transparent" d="M273.70 93.80L273.70 90.80L273.70 90.80Q269.90 95.80 261.60 95.80L261.60 95.80L261.60 95.80Q253.30 95.80 246.05 88.15L246.05 88.15L246.05 88.15Q238.80 80.50 238.80 70.30L238.80 70.30L238.80 70.30Q238.80 60.10 246.10 52.40L246.10 52.40L246.10 52.40Q253.40 44.70 262.10 44.70L262.10 44.70L262.10 44.70Q265.50 44.70 268.30 45.95L268.30 45.95L268.30 45.95Q271.10 47.20 272.15 48.25L272.15 48.25L272.15 48.25Q273.20 49.30 273.80 50.20L273.80 50.20L273.80 50.20Q274.10 47.40 275.85 45.95L275.85 45.95L275.85 45.95Q277.60 44.50 281.50 44.50L281.50 44.50L281.50 44.50Q285.40 44.50 287.20 45.10L287.20 45.10L287.20 45.10Q289 45.70 289.75 47.15L289.75 47.15L289.75 47.15Q290.50 48.60 290.65 49.70L290.65 49.70L290.65 49.70Q290.80 50.80 290.80 53.10L290.80 53.10L290.80 94.50L290.80 94.50Q290.80 106 282.80 113.05L282.80 113.05L282.80 113.05Q274.80 120.10 264.80 120.10L264.80 120.10L264.80 120.10Q257.20 120.10 250.30 116.40L250.30 116.40L250.30 116.40Q243.40 112.70 243.40 109.70L243.40 109.70L243.40 109.70Q243.40 105.80 246.40 102.80L246.40 102.80L246.40 102.80Q248.30 100.70 249.35 99.90L249.35 99.90L249.35 99.90Q250.40 99.10 251.80 99.10L251.80 99.10L251.80 99.10Q253.20 99.10 254.70 100.30L254.70 100.30L254.70 100.30Q259.50 104 265.10 104L265.10 104L265.10 104Q268.90 104 271.30 101L271.30 101L271.30 101Q273.70 98 273.70 93.80L273.70 93.80ZM255.90 70.35L255.90 70.35L255.90 70.35Q255.90 73.60 258.45 76.20L258.45 76.20L258.45 76.20Q261 78.80 264.65 78.80L264.65 78.80L264.65 78.80Q268.30 78.80 270.70 76.15L270.70 76.15L270.70 76.15Q273.10 73.50 273.10 70.35L273.10 70.35L273.10 70.35Q273.10 67.20 270.80 64.45L270.80 64.45L270.80 64.45Q268.50 61.70 264.60 61.70L264.60 61.70L264.60 61.70Q260.70 61.70 258.30 64.40L258.30 64.40L258.30 64.40Q255.90 67.10 255.90 70.35Z"></path><path stroke="white" fill="transparent" d="M333 50.30L333 50.30L333 50.30Q333.60 44.70 340.90 44.70L340.90 44.70L340.90 44.70Q344.80 44.70 346.70 45.30L346.70 45.30L346.70 45.30Q348.60 45.90 349.35 47.40L349.35 47.40L349.35 47.40Q350.10 48.90 350.25 50.05L350.25 50.05L350.25 50.05Q350.40 51.20 350.40 53.50L350.40 53.50L350.40 88.50L350.40 88.50Q350.40 90.80 350.25 91.95L350.25 91.95L350.25 91.95Q350.10 93.10 349.40 94.60L349.40 94.60L349.40 94.60Q348 97.20 342.55 97.20L342.55 97.20L342.55 97.20Q337.10 97.20 335.25 95.85L335.25 95.85L335.25 95.85Q333.40 94.50 333.10 91.90L333.10 91.90L333.10 91.90Q329.40 97.20 320.75 97.20L320.75 97.20L320.75 97.20Q312.10 97.20 304.70 89.30L304.70 89.30L304.70 89.30Q297.30 81.40 297.30 70.95L297.30 70.95L297.30 70.95Q297.30 60.50 304.75 52.65L304.75 52.65L304.75 52.65Q312.20 44.80 321.10 44.80L321.10 44.80L321.10 44.80Q324.50 44.80 327.30 46L327.30 46L327.30 46Q330.10 47.20 331.20 48.25L331.20 48.25L331.20 48.25Q332.30 49.30 333 50.30ZM314.80 71.10L314.80 71.10L314.80 71.10Q314.80 74.40 317.40 77.05L317.40 77.05L317.40 77.05Q320 79.70 323.70 79.70L323.70 79.70L323.70 79.70Q327.40 79.70 329.85 77L329.85 77L329.85 77Q332.30 74.30 332.30 71.05L332.30 71.05L332.30 71.05Q332.30 67.80 329.95 65L329.95 65L329.95 65Q327.60 62.20 323.65 62.20L323.65 62.20L323.65 62.20Q319.70 62.20 317.25 65L317.25 65L317.25 65Q314.80 67.80 314.80 71.10Z"></path></svg>