<svg xmlns="http://www.w3.org/2000/svg" xmlns:xlink="http://www.w3.org/1999/xlink" style="background-color:transparent" width="620.4" height="121"><path stroke="black" fill="white" d="M13.10 24.10L52.50 24.10L52.50 24.10Q54.80 24.10 55.95 24.25L55.95 24.25L55.95 24.25Q57.10 24.40 58.55 25.20L58.55 25.20L58.55 25.20Q60 26 60.60 27.90L60.60 27.90L60.60 27.90Q61.20 29.80 61.20 33L61.20 33L61.20 33Q61.20 36.20 60.60 38.10L60.60 38.10L60.60 38.10Q60 40 58.50 40.75L58.50 40.75L58.50 40.75Q57 41.50 55.85 41.65L55.85 41.65L55.85 41.65Q54.70 41.80 52.30 41.80L52.30 41.80L21.70 41.80L21.70 51.90L41.40 51.90L41.40 51.90Q43.80 51.90 44.95 52.05L44.95 52.05L44.95 52.05Q46.10 52.20 47.60 53L47.60 53L47.60 53Q50.20 54.50 50.20 60.90L50.20 60.90L50.20 60.90Q50.20 67.90 46.40 69.20L46.40 69.20L46.40 69.20Q44.80 69.70 41.30 69.70L41.30 69.70L21.70 69.70L21.70 88.60L21.70 88.60Q21.70 91 21.55 92.10L21.55 92.10L21.55 92.10Q21.40 93.20 20.60 94.70L20.60 94.70L20.60 94.70Q19.20 97.40 12.80 97.40L12.80 97.40L12.80 97.40Q5.80 97.40 4.60 93.60L4.60 93.60L4.60 93.60Q4 92 4 88.50L4 88.50L4 32.90L4 32.90Q4 27.80 5.90 25.95L5.90 25.95L5.90 25.95Q7.80 24.10 13.10 24.10L13.10 24.10Z"></path><path stroke="black" fill="white" d="M103.50 45.30L103.50 45.30L103.50 45.30Q105.40 45.90 106.65 47.35L106.65 47.35L106.65 47.35Q107.90 48.80 107.90 52L107.90 52L107.90 52Q107.90 55.20 106 59L106 59L106 59Q104.10 62.80 100.50 62.80L100.50 62.80L100.50 62.80Q98.70 62.80 97.05 62.00L97.05 62.00L97.05 62.00Q95.40 61.20 92.70 61.20L92.70 61.20L92.70 61.20Q90 61.20 87.65 63.10L87.65 63.10L87.65 63.10Q85.30 65 85.30 67.70L85.30 67.70L85.30 88.70L85.30 88.70Q85.30 91 85.15 92.15L85.15 92.15L85.15 92.15Q85 93.30 84.20 94.80L84.20 94.80L84.20 94.80Q82.70 97.40 76.40 97.40L76.40 97.40L76.40 97.40Q71.60 97.40 69.50 95.70L69.50 95.70L69.50 95.70Q67.90 94.30 67.70 91.40L67.70 91.40L67.70 91.40Q67.70 90.40 67.70 88.50L67.70 88.50L67.70 53.40L67.70 53.40Q67.70 51.10 67.85 49.95L67.85 49.95L67.85 49.95Q68 48.80 68.70 47.40L68.70 47.40L68.70 47.40Q70.10 44.70 76.50 44.70L76.50 44.70L76.50 44.70Q82.50 44.70 84 47L84 47L84 47Q85.10 48.60 85.10 50.30L85.10 50.30L85.10 50.30Q85.60 49.60 86.55 48.60L86.55 48.60L86.55 48.60Q87.50 47.60 90.60 45.90L90.60 45.90L90.60 45.90Q93.70 44.20 96.05 44.20L96.05 44.20L96.05 44.20Q98.40 44.20 100 44.45L100 44.45L100 44.45Q101.60 44.70 103.50 45.30Z"></path><path stroke="black" fill="white" d="M164.20 64.75L164.20 64.75L164.20 64.75Q164.20 70.90 161.15 73.85L161.15 73.85L161.15 73.85Q158.10 76.80 154.40 76.80L154.40 76.80L130.70 76.80L130.70 76.80Q130.70 79.60 134 81.50L134 81.50L134 81.50Q137.30 83.40 140.60 83.40L140.60 83.40L140.60 83.40Q146.40 83.40 149.70 82.20L149.70 82.20L150.80 81.80L150.80 81.80Q153.20 80.70 154.80 80.70L154.80 80.70L154.80 80.70Q158 80.70 160.30 85.20L160.30 85.20L160.30 85.20Q161.60 87.90 161.60 89.80L161.60 89.80L161.60 89.80Q161.60 98.70 140.30 98.70L140.30 98.70L140.30 98.70Q132.90 98.70 127.15 96.15L127.15 96.15L127.15 96.15Q121.40 93.60 118.20 89.40L118.20 89.40L118.20 89.40Q111.90 81.30 111.90 71.30L111.90 71.30L111.90 71.30Q111.90 58.70 120.05 51.15L120.05 51.15L120.05 51.15Q128.20 43.60 140.40 43.60L140.40 43.60L140.40 43.60Q154.30 43.60 160.80 53.40L160.80 53.40L160.80 53.40Q164.20 58.60 164.20 64.75ZM130.50 67.70L143.10 67.70L143.10 67.70Q146.90 67.70 146.90 64.50L146.90 64.50L146.90 64.50Q146.90 62.20 145.15 60.80L145.15 60.80L145.15 60.80Q143.40 59.40 140.15 59.40L140.15 59.40L140.15 59.40Q136.90 59.40 133.70 62.05L133.70 62.05L133.70 62.05Q130.50 64.70 130.50 67.70L130.50 67.70Z"></path><path stroke="black" fill="white" d="M206.05 22.75L206.05 22.75L206.05 22.75Q206.80 21.30 208.70 20.70L208.70 20.70L208.70 20.70Q210.60 20.10 213.75 20.10L213.75 20.10L213.75 20.10Q216.90 20.10 218.80 20.70L218.80 20.70L218.80 20.70Q220.70 21.30 221.45 22.80L221.45 22.80L221.45 22.80Q222.20 24.30 222.35 25.45L222.35 25.45L222.35 25.45Q222.50 26.60 222.50 28.90L222.50 28.90L222.50 88.60L222.50 88.60Q222.50 90.90 222.35 92.05L222.35 92.05L222.35 92.05Q222.20 93.20 221.40 94.60L221.40 94.60L221.40 94.60Q219.90 97.30 212.95 97.30L212.95 97.30L212.95 97.30Q206.00 97.30 205.20 92.40L205.20 92.40L205.20 92.40Q201.00 97.20 193.50 97.20L193.50 97.20L193.50 97.20Q184.50 97.20 177.10 89.35L177.10 89.35L177.10 89.35Q169.70 81.50 169.70 71.05L169.70 71.05L169.70 71.05Q169.70 60.60 177.15 52.70L177.15 52.70L177.15 52.70Q184.60 44.80 193.50 44.80L193.50 44.80L193.50 44.80Q200.90 44.80 205.00 49.80L205.00 49.80L205.00 28.80L205.00 28.80Q205.00 26.50 205.15 25.35L205.15 25.35L205.15 25.35Q205.30 24.20 206.05 22.75ZM189.80 77.10L189.80 77.10L189.80 77.10Q192.40 79.80 196.10 79.80L196.10 79.80L196.10 79.80Q199.80 79.80 202.25 77.10L202.25 77.10L202.25 77.10Q204.70 74.40 204.70 71.15L204.70 71.15L204.70 71.15Q204.70 67.90 202.35 65.10L202.35 65.10L202.35 65.10Q200.00 62.30 196.00 62.30L196.00 62.30L196.00 62.30Q192.00 62.30 189.60 65.05L189.60 65.05L189.60 65.05Q187.20 67.80 187.20 71.10L187.20 71.10L187.20 71.10Q187.20 74.40 189.80 77.10Z"></path><path stroke="black" fill="white" d="M229.00 71.10L229.00 71.10Q229.00 59.10 237.40 51.30L237.40 51.30L237.40 51.30Q245.80 43.50 256.60 43.50L256.60 43.50L256.60 43.50Q267.40 43.50 275.70 51.25L275.70 51.25L275.70 51.25Q284 59 284 71L284 71L284 71Q284 79.30 279.70 85.75L279.70 85.75L279.70 85.75Q275.40 92.20 269.25 95.25L269.25 95.25L269.25 95.25Q263.10 98.30 256.50 98.30L256.50 98.30L256.50 98.30Q249.90 98.30 243.70 95.05L243.70 95.05L243.70 95.05Q237.50 91.80 233.25 85.45L233.25 85.45L233.25 85.45Q229.00 79.10 229.00 71.10L229.00 71.10ZM249.90 78.25L249.90 78.25L249.90 78.25Q253.10 80.70 256.40 80.70L256.40 80.70L256.40 80.70Q259.70 80.70 263 78.20L263 78.20L263 78.20Q266.30 75.70 266.30 70.80L266.30 70.80L266.30 70.80Q266.30 65.90 263.20 63.50L263.20 63.50L263.20 63.50Q260.10 61.10 256.50 61.10L256.50 61.10L256.50 61.10Q252.90 61.10 249.80 63.60L249.80 63.60L249.80 63.60Q246.70 66.10 246.70 70.95L246.70 70.95L246.70 70.95Q246.70 75.80 249.90 78.25Z"></path><path stroke="black" fill="white" d="M331.40 62.60L321.50 71L334.80 82L334.80 82Q337.30 84.10 337.95 85.20L337.95 85.20L337.95 85.20Q338.60 86.30 338.60 87.30L338.60 87.30L338.60 87.30Q338.60 89.70 335.50 93.80L335.50 93.80L335.50 93.80Q332.10 98 329.50 98L329.50 98L329.50 98Q327.30 98 323.40 95.10L323.40 95.10L322.40 94.40L322.40 94.40Q320.10 92.50 315.30 87.75L315.30 87.75L315.30 87.75Q310.50 83 308 81L308 81L308 88.70L308 88.70Q308 91 307.85 92.15L307.85 92.15L307.85 92.15Q307.70 93.30 306.90 94.80L306.90 94.80L306.90 94.80Q305.60 97.40 299.20 97.40L299.20 97.40L299.20 97.40Q292.90 97.40 291.50 94.70L291.50 94.70L291.50 94.70Q290.80 93.20 290.65 92.05L290.65 92.05L290.65 92.05Q290.50 90.90 290.50 88.60L290.50 88.60L290.50 28.70L290.50 28.70Q290.50 26.40 290.65 25.25L290.65 25.25L290.65 25.25Q290.80 24.10 291.50 22.60L291.50 22.60L291.50 22.60Q292.90 19.90 299.30 19.90L299.30 19.90L299.30 19.90Q304.10 19.90 306.10 21.60L306.10 21.60L306.10 21.60Q307.80 23 307.90 26L307.90 26L307.90 26Q308 26.90 308 28.80L308 28.80L308 60.50L308 60.50Q309.80 59 313.45 55.40L313.45 55.40L313.45 55.40Q317.10 51.80 318.90 50.30L318.90 50.30L320.10 49.50L320.10 49.50Q323.60 46.80 326.10 46.80L326.10 46.80L326.10 46.80Q328.60 46.80 331.85 50.85L331.85 50.85L331.85 50.85Q335.10 54.90 335.10 57.20L335.10 57.20L335.10 57.20Q335.10 59.50 331.40 62.60L331.40 62.60Z"></path><path stroke="black" fill="white" d="M378.30 50.30L378.30 50.30L378.30 50.30Q378.90 44.70 386.20 44.70L386.20 44.70L386.20 44.70Q390.10 44.70 392 45.30L392 45.30L392 45.30Q393.90 45.90 394.65 47.40L394.65 47.40L394.65 47.40Q395.40 48.90 395.55 50.05L395.55 50.05L395.55 50.05Q395.70 51.20 395.70 53.50L395.70 53.50L395.70 88.50L395.70 88.50Q395.70 90.80 395.55 91.95L395.55 91.95L395.55 91.95Q395.40 93.10 394.70 94.60L394.70 94.60L394.70 94.60Q393.30 97.20 387.85 97.20L387.85 97.20L387.85 97.20Q382.40 97.20 380.55 95.85L380.55 95.85L380.55 95.85Q378.70 94.50 378.40 91.90L378.40 91.90L378.40 91.90Q374.70 97.20 366.05 97.20L366.05 97.20L366.05 97.20Q357.40 97.20 350 89.30L350 89.30L350 89.30Q342.60 81.40 342.60 70.95L342.60 70.95L342.60 70.95Q342.60 60.50 350.05 52.65L350.05 52.65L350.05 52.65Q357.50 44.80 366.40 44.80L366.40 44.80L366.40 44.80Q369.80 44.80 372.60 46L372.60 46L372.60 46Q375.40 47.20 376.50 48.25L376.50 48.25L376.50 48.25Q377.60 49.30 378.30 50.30ZM360.10 71.10L360.10 71.10L360.10 71.10Q360.10 74.40 362.70 77.05L362.70 77.05L362.70 77.05Q365.30 79.70 369 79.70L369 79.70L369 79.70Q372.70 79.70 375.15 77L375.15 77L375.15 77Q377.60 74.30 377.60 71.05L377.60 71.05L377.60 71.05Q377.60 67.80 375.25 65L375.25 65L375.25 65Q372.90 62.20 368.95 62.20L368.95 62.20L368.95 62.20Q365 62.20 362.55 65L362.55 65L362.55 65Q360.10 67.80 360.10 71.10Z"></path><path stroke="black" fill="white" d=""></path><path stroke="black" fill="white" d="M463.40 23.20L463.40 23.20L463.40 23.20Q478.20 23.20 489.10 33.90L489.10 33.90L489.10 33.90Q500.00 44.60 500.00 60.45L500.00 60.45L500.00 60.45Q500.00 76.30 489.60 87.45L489.60 87.45L489.60 87.45Q479.20 98.60 464.00 98.60L464.00 98.60L464.00 98.60Q448.80 98.60 438.15 87.60L438.15 87.60L438.15 87.60Q427.50 76.60 427.50 61.40L427.50 61.40L427.50 61.40Q427.50 53.10 430.50 45.85L430.50 45.85L430.50 45.85Q433.50 38.60 438.50 33.70L438.50 33.70L438.50 33.70Q443.50 28.80 450.00 26L450.00 26L450.00 26Q456.50 23.20 463.40 23.20ZM445.20 60.90L445.20 60.90L445.20 60.90Q445.20 69.80 450.95 75.35L450.95 75.35L450.95 75.35Q456.70 80.90 463.80 80.90L463.80 80.90L463.80 80.90Q470.90 80.90 476.60 75.50L476.60 75.50L476.60 75.50Q482.30 70.10 482.30 61.00L482.30 61.00L482.30 61.00Q482.30 51.90 476.55 46.40L476.55 46.40L476.55 46.40Q470.80 40.90 463.70 40.90L463.70 40.90L463.70 40.90Q456.60 40.90 450.90 46.45L450.90 46.45L450.90 46.45Q445.20 52 445.20 60.90Z"></path><path stroke="black" fill="white" d="M535.80 44.70L535.80 44.70L535.80 44.70Q545.80 44.70 552.45 52.35L552.45 52.35L552.45 52.35Q559.10 60.00 559.10 71L559.10 71L559.10 88.60L559.10 88.60Q559.10 90.90 558.95 92.05L558.95 92.05L558.95 92.05Q558.80 93.20 558.10 94.60L558.10 94.60L558.10 94.60Q556.70 97.30 550.30 97.30L550.30 97.30L550.30 97.30Q543.20 97.30 542.10 93.60L542.10 93.60L542.10 93.60Q541.50 91.90 541.50 88.50L541.50 88.50L541.50 70.90L541.50 70.90Q541.50 66.80 539.15 64.50L539.15 64.50L539.15 64.50Q536.80 62.20 532.85 62.20L532.85 62.20L532.85 62.20Q528.90 62.20 526.45 64.60L526.45 64.60L526.45 64.60Q524 67 524 70.90L524 70.90L524 88.60L524 88.60Q524 90.90 523.85 92.05L523.85 92.05L523.85 92.05Q523.70 93.20 522.90 94.60L522.90 94.60L522.90 94.60Q521.60 97.30 515.20 97.30L515.20 97.30L515.20 97.30Q508.90 97.30 507.50 94.60L507.50 94.60L507.50 94.60Q506.80 93.10 506.65 91.95L506.65 91.95L506.65 91.95Q506.50 90.80 506.50 88.50L506.50 88.50L506.50 53.10L506.50 53.10Q506.50 50.90 506.65 49.75L506.65 49.75L506.65 49.75Q506.80 48.60 507.60 47.20L507.60 47.20L507.60 47.20Q509.00 44.70 515.30 44.70L515.30 44.70L515.30 44.70Q521.40 44.70 522.80 47L522.80 47L522.80 47Q523.80 48.70 523.80 51.10L523.80 51.10L523.80 51.10Q524.20 50.40 525.60 49.10L525.60 49.10L525.60 49.10Q527 47.80 528.30 47L528.30 47L528.30 47Q531.70 44.70 535.80 44.70Z"></path><path stroke="black" fill="white" d="M617.90 64.75L617.90 64.75L617.90 64.75Q617.90 70.90 614.85 73.85L614.85 73.85L614.85 73.85Q611.80 76.80 608.10 76.80L608.10 76.80L584.40 76.80L584.40 76.80Q584.40 79.60 587.70 81.50L587.70 81.50L587.70 81.50Q591 83.40 594.30 83.40L594.30 83.40L594.30 83.40Q600.10 83.40 603.40 82.20L603.40 82.20L604.50 81.80L604.50 81.80Q606.90 80.70 608.50 80.70L608.50 80.70L608.50 80.70Q611.70 80.70 614 85.20L614 85.20L614 85.20Q615.30 87.90 615.30 89.80L615.30 89.80L615.30 89.80Q615.30 98.70 594 98.70L594 98.70L594 98.70Q586.60 98.70 580.85 96.15L580.85 96.15L580.85 96.15Q575.10 93.60 571.90 89.40L571.90 89.40L571.90 89.40Q565.60 81.30 565.60 71.30L565.60 71.30L565.60 71.30Q565.60 58.70 573.75 51.15L573.75 51.15L573.75 51.15Q581.90 43.60 594.10 43.60L594.10 43.60L594.10 43.60Q608 43.60 614.50 53.40L614.50 53.40L614.50 53.40Q617.90 58.60 617.90 64.75ZM584.20 67.70L596.80 67.70L596.80 67.70Q600.60 67.70 600.60 64.50L600.60 64.50L600.60 64.50Q600.60 62.20 598.85 60.80L598.85 60.80L598.85 60.80Q597.10 59.40 593.85 59.40L593.85 59.40L593.85 59.40Q590.60 59.40 587.40 62.05L587.40 62.05L587.40 62.05Q584.20 64.70 584.20 67.70L584.20 67.70Z"></path></svg>