<svg xmlns="http://www.w3.org/2000/svg" xmlns:xlink="http://www.w3.org/1999/xlink" style="background-color:transparent" width="424.8" height="138.3"><path stroke="black" fill="white" d="M57.85 38.20L57.85 38.20L57.85 38.20Q60.50 42.20 61.80 46.65L61.80 46.65L61.80 46.65Q63.10 51.10 63.10 56.50L63.10 56.50L63.10 56.50Q63.10 61.90 61.90 68L61.90 68L61.90 68Q60.70 74.10 57.90 80.20L57.90 80.20L57.90 80.20Q55.10 86.30 51.10 91L51.10 91L51.10 91Q47.10 95.70 41 98.65L41 98.65L41 98.65Q34.90 101.60 27.60 101.60L27.60 101.60L27.60 101.60Q16.90 101.60 11 93.95L11 93.95L11 93.95Q5.10 86.30 5.10 74.25L5.10 74.25L5.10 74.25Q5.10 62.20 9.35 52.15L9.35 52.15L9.35 52.15Q13.60 42.10 21.55 35.75L21.55 35.75L21.55 35.75Q29.50 29.40 39.20 29.40L39.20 29.40L39.20 29.40Q45.60 29.40 50.40 31.80L50.40 31.80L50.40 31.80Q55.20 34.20 57.85 38.20ZM30.65 94.80L30.65 94.80L30.65 94.80Q35.30 94.80 38.55 90.70L38.55 90.70L38.55 90.70Q41.80 86.60 43.50 80L43.50 80L43.50 80Q46.90 67 46.90 53.30L46.90 53.30L46.90 53.30Q46.90 36.20 37.70 36.20L37.70 36.20L37.70 36.20Q32.50 36.20 28.60 42.40L28.60 42.40L28.60 42.40Q21.30 54.10 21.30 74.80L21.30 74.80L21.30 74.80Q21.30 86.10 22.60 88.80L22.60 88.80L22.60 88.80Q23.20 90.30 24.20 91.90L24.20 91.90L24.20 91.90Q26 94.80 30.65 94.80Z"></path><path stroke="black" fill="white" d="M74.35 101.60L74.35 101.60L74.35 101.60Q70.90 101.60 68.65 99.30L68.65 99.30L68.65 99.30Q66.40 97 66.40 92.85L66.40 92.85L66.40 92.85Q66.40 88.70 71.35 66.35L71.35 66.35L71.35 66.35Q76.30 44 76.30 34.10L76.30 34.10L75.70 29.70L75.70 29.70Q83.50 27 90.30 27L90.30 27L90.30 27Q91.30 28.40 91.30 31.90L91.30 31.90L91.30 31.90Q91.30 39.90 86.25 62.85L86.25 62.85L86.25 62.85Q81.20 85.80 81.20 89.55L81.20 89.55L81.20 89.55Q81.20 93.30 82.10 93.30L82.10 93.30L89.10 90.80L90.90 94.30L90.90 94.30Q87.50 97 82.65 99.30L82.65 99.30L82.65 99.30Q77.80 101.60 74.35 101.60Z"></path><path stroke="black" fill="white" d="M92.80 83.10L92.80 83.10L92.80 83.10Q92.80 70.60 100.35 63.35L100.35 63.35L100.35 63.35Q107.90 56.10 117.50 56.10L117.50 56.10L117.50 56.10Q123.40 56.10 127.20 59L127.20 59L127.20 59Q131 61.90 131 66.75L131 66.75L131 66.75Q131 71.60 128.55 74.90L128.55 74.90L128.55 74.90Q126.10 78.20 122.60 80L122.60 80L122.60 80Q115.50 83.50 109.60 84.40L109.60 84.40L107.20 84.70L107.20 84.70Q107.90 94.10 114.90 94.10L114.90 94.10L114.90 94.10Q117.30 94.10 120 92.90L120 92.90L120 92.90Q122.70 91.70 124.20 90.50L124.20 90.50L125.70 89.30L128.10 92.50L128.10 92.50Q127.30 93.60 124.90 95.40L124.90 95.40L124.90 95.40Q122.50 97.20 120.40 98.40L120.40 98.40L120.40 98.40Q114.60 101.60 107.70 101.60L107.70 101.60L107.70 101.60Q100.80 101.60 96.80 96.70L96.80 96.70L96.80 96.70Q92.80 91.80 92.80 83.10ZM107.10 79.80L107.10 79.80Q112.20 78.90 115.20 75.50L115.20 75.50L115.20 75.50Q118.20 72.10 118.20 66.70L118.20 66.70L118.20 66.70Q118.20 61.30 115 61.30L115 61.30L115 61.30Q111.20 61.30 109.15 67.75L109.15 67.75L109.15 67.75Q107.10 74.20 107.10 79.80L107.10 79.80Z"></path><path stroke="black" fill="white" d="M147.10 101.60L147.10 101.60L147.10 101.60Q140.20 101.60 136.30 96.75L136.30 96.75L136.30 96.75Q132.40 91.90 132.40 83.20L132.40 83.20L132.40 83.20Q132.40 72.10 138.35 64.10L138.35 64.10L138.35 64.10Q144.30 56.10 154.80 56.10L154.80 56.10L158.40 56.30L158.40 56.30Q160.10 55.40 162.20 55.40L162.20 55.40L162.20 55.40Q170.10 55.40 170.10 70.30L170.10 70.30L170.10 70.30Q174.20 70.10 178.40 69.20L178.40 69.20L180.00 68.80L180.60 72.70L180.60 72.70Q177.30 74.10 171.70 75.20L171.70 75.20L169.70 75.60L169.70 75.60Q167.80 86.10 162.00 93.85L162.00 93.85L162.00 93.85Q156.20 101.60 147.10 101.60ZM152.50 93L152.50 93L152.50 93Q156.70 93 160.05 87.60L160.05 87.60L160.05 87.60Q163.40 82.20 164.70 76.20L164.70 76.20L164.70 76.20Q154.00 76.20 154.00 68.20L154.00 68.20L154.00 68.20Q154.00 65 155.30 62.20L155.30 62.20L155.80 61.20L155.80 61.20Q155.40 61 154.80 61L154.80 61L154.80 61Q154.20 61 153.90 61.20L153.90 61.20L153.90 61.20Q151.40 62.80 149.20 68.70L149.20 68.70L149.20 68.70Q147.00 74.60 147.00 82.20L147.00 82.20L147.00 82.20Q147.00 93 152.50 93Z"></path><path stroke="black" fill="white" d=""></path><path stroke="black" fill="white" d="M234.20 80.80L234.20 80.80L234.20 80.80Q234.20 90.40 226.90 96L226.90 96L226.90 96Q219.60 101.60 209.20 101.60L209.20 101.60L209.20 101.60Q202.20 101.60 197.65 98.05L197.65 98.05L197.65 98.05Q193.10 94.50 192.60 92L192.60 92L192.60 92Q193.70 88.70 197.30 84.60L197.30 84.60L197.30 84.60Q200.90 80.50 203.80 79.60L203.80 79.60L203.80 79.60Q208.90 82.90 213.30 94.30L213.30 94.30L213.30 94.30Q219.80 94.10 219.80 87.20L219.80 87.20L219.80 87.20Q219.80 83.40 216.75 77.85L216.75 77.85L216.75 77.85Q213.70 72.30 210.10 67.45L210.10 67.45L210.10 67.45Q206.50 62.60 203.45 56.55L203.45 56.55L203.45 56.55Q200.40 50.50 200.40 45.80L200.40 45.80L200.40 45.80Q200.40 38.20 206.55 33.80L206.55 33.80L206.55 33.80Q212.70 29.40 220.40 29.40L220.40 29.40L220.40 29.40Q228.10 29.40 232.35 32.70L232.35 32.70L232.35 32.70Q236.60 36 236.60 40.20L236.60 40.20L236.60 40.20Q236.60 44.40 233.40 48.80L233.40 48.80L233.40 48.80Q230.20 53.20 227.00 55.80L227.00 55.80L223.80 58.40L223.80 58.40Q225.00 60 226.70 62.50L226.70 62.50L226.70 62.50Q228.40 65 231.30 71L231.30 71L231.30 71Q234.20 77 234.20 80.80ZM226.55 48L226.55 48L226.55 48Q227.90 46.70 229.00 44.85L229.00 44.85L229.00 44.85Q230.10 43 230.10 40.95L230.10 40.95L230.10 40.95Q230.10 38.90 227.70 37.50L227.70 37.50L227.70 37.50Q225.30 36.10 221.95 36.10L221.95 36.10L221.95 36.10Q218.60 36.10 216.35 37.65L216.35 37.65L216.35 37.65Q214.10 39.20 214.10 41.35L214.10 41.35L214.10 41.35Q214.10 43.50 215.55 46.35L215.55 46.35L215.55 46.35Q217.00 49.20 218.40 51.10L218.40 51.10L219.90 53L219.90 53Q220.90 52.50 223.05 50.90L223.05 50.90L223.05 50.90Q225.20 49.30 226.55 48Z"></path><path stroke="black" fill="white" d="M263.30 61.10L263.30 61.10L263.30 61.10Q259.30 61.10 256.90 67.75L256.90 67.75L256.90 67.75Q254.50 74.40 254.50 82L254.50 82L254.50 82Q254.50 94 261.90 94L261.90 94L261.90 94Q264.30 94 267.00 92.85L267.00 92.85L267.00 92.85Q269.70 91.70 271.30 90.60L271.30 90.60L272.80 89.40L275.10 92.50L275.10 92.50Q274.30 93.60 271.90 95.40L271.90 95.40L271.90 95.40Q269.50 97.20 267.40 98.40L267.40 98.40L267.40 98.40Q265.30 99.60 262.00 100.60L262.00 100.60L262.00 100.60Q258.70 101.60 255.50 101.60L255.50 101.60L255.50 101.60Q247.70 101.60 243.80 96.50L243.80 96.50L243.80 96.50Q239.90 91.40 239.90 82.80L239.90 82.80L239.90 82.80Q239.90 70.90 246.45 63.50L246.45 63.50L246.45 63.50Q253.00 56.10 263.30 56.10L263.30 56.10L263.30 56.10Q270.00 56.10 273.95 59.15L273.95 59.15L273.95 59.15Q277.90 62.20 277.90 66.65L277.90 66.65L277.90 66.65Q277.90 71.10 275.10 74.30L275.10 74.30L275.10 74.30Q272.60 74.30 269.30 73.20L269.30 73.20L269.30 73.20Q266.00 72.10 264.30 70.50L264.30 70.50L265.80 61.70L265.80 61.70Q264.90 61.10 263.30 61.10Z"></path><path stroke="black" fill="white" d="M282.00 100.70L282.00 100.70L281.30 100.70L281.30 100.70Q281.10 99.90 281.10 97.05L281.10 97.05L281.10 97.05Q281.10 94.20 283.80 81.70L283.80 81.70L283.80 81.70Q286.50 69.20 286.50 67.40L286.50 67.40L286.50 67.40Q286.50 64.30 283.70 60.60L283.70 60.60L282.80 59.40L282.90 58.10L282.90 58.10Q288.30 56.60 300.20 56.60L300.20 56.60L300.20 56.60Q301.40 59.20 301.40 63.90L301.40 63.90L301.40 63.90Q302.50 62.10 306.00 59.10L306.00 59.10L306.00 59.10Q309.50 56.10 313.20 56.10L313.20 56.10L313.20 56.10Q318.60 56.10 318.60 65.50L318.60 65.50L318.60 65.50Q318.10 66.10 317.25 67.05L317.25 67.05L317.25 67.05Q316.40 68 313.85 69.70L313.85 69.70L313.85 69.70Q311.30 71.40 308.90 71.80L308.90 71.80L308.90 71.80Q308.80 71.80 307.20 69.10L307.20 69.10L307.20 69.10Q305.60 66.40 304.80 66.40L304.80 66.40L304.80 66.40Q302.30 67.30 300.40 69.40L300.40 69.40L300.40 69.40Q295.80 90.10 295.80 96.20L295.80 96.20L295.80 96.20Q295.80 98.40 295.90 99.30L295.90 99.30L295.90 99.30Q292.40 100.70 282.00 100.70Z"></path><path stroke="black" fill="white" d="M337.10 62.30L337.10 62.30L337.10 62.30Q337.10 66.50 334.40 76.75L334.40 76.75L334.40 76.75Q331.70 87 331.70 90.15L331.70 90.15L331.70 90.15Q331.70 93.30 332.60 93.30L332.60 93.30L332.60 93.30Q333.20 93.30 337.20 91.40L337.20 91.40L338.40 90.80L340.10 94.30L340.10 94.30Q339.20 95.10 337.70 96.30L337.70 96.30L337.70 96.30Q336.20 97.50 332.10 99.55L332.10 99.55L332.10 99.55Q328.00 101.60 324.50 101.60L324.50 101.60L324.50 101.60Q321.00 101.60 319.00 99.45L319.00 99.45L319.00 99.45Q317.00 97.30 317.00 93.65L317.00 93.65L317.00 93.65Q317.00 90 319.50 80.65L319.50 80.65L319.50 80.65Q322.00 71.30 322.00 68.50L322.00 68.50L322.00 68.50Q322.00 64.30 319.40 60.60L319.40 60.60L318.50 59.40L318.60 58.10L318.60 58.10Q323.90 56.60 335.80 56.60L335.80 56.60L335.80 56.60Q337.10 58.10 337.10 62.30ZM325.70 45.65L325.70 45.65L325.70 45.65Q323.70 43.70 323.70 40.40L323.70 40.40L323.70 40.40Q323.70 37.10 326.45 34.60L326.45 34.60L326.45 34.60Q329.20 32.10 332.80 32.10L332.80 32.10L332.80 32.10Q336.40 32.10 338.40 34.10L338.40 34.10L338.40 34.10Q340.40 36.10 340.40 39.35L340.40 39.35L340.40 39.35Q340.40 42.60 337.55 45.10L337.55 45.10L337.55 45.10Q334.70 47.60 331.20 47.60L331.20 47.60L331.20 47.60Q327.70 47.60 325.70 45.65Z"></path><path stroke="black" fill="white" d="M340.70 122.80L340.70 122.80L340.70 122.80Q340.20 121.60 340.20 117.50L340.20 117.50L340.20 117.50Q340.20 113.40 344.10 95.45L344.10 95.45L344.10 95.45Q348 77.50 348 67.80L348 67.80L348 67.80Q348 65.90 347.10 63.75L347.10 63.75L347.10 63.75Q346.20 61.60 345.20 60.40L345.20 60.40L344.30 59.30L344.40 58L344.40 58Q349.10 56.50 361 56.50L361 56.50L361 56.50Q362.10 58.60 362.40 62.40L362.40 62.40L362.40 62.40Q370.10 56.10 375.25 56.10L375.25 56.10L375.25 56.10Q380.40 56.10 383.55 60.40L383.55 60.40L383.55 60.40Q386.70 64.70 386.70 73L386.70 73L386.70 73Q386.70 87.50 381.40 94.55L381.40 94.55L381.40 94.55Q376.10 101.60 368 101.60L368 101.60L368 101.60Q363.80 101.60 361 100.40L361 100.40L360 100L360.70 96.10L360.70 96.10Q361.60 96.30 362.80 96.30L362.80 96.30L362.80 96.30Q365.40 96.30 367.35 93.90L367.35 93.90L367.35 93.90Q369.30 91.50 370.30 87.80L370.30 87.80L370.30 87.80Q372.30 80.40 372.30 74.10L372.30 74.10L372.30 74.10Q372.30 65.10 368.60 65.10L368.60 65.10L368.60 65.10Q365.70 65.10 362.40 67.40L362.40 67.40L362.40 67.40Q362 74.40 358.30 91.90L358.30 91.90L358.30 91.90Q354.60 109.40 354.60 120.10L354.60 120.10L354.60 120.10Q349.20 122.30 340.70 122.80Z"></path><path stroke="black" fill="white" d="M412.90 57.30L422.60 57.30L422.60 57.30Q422.40 59.80 420.90 63.10L420.90 63.10L420.90 63.10Q417.10 62.70 413.70 62.70L413.70 62.70L411.90 62.70L411.90 62.70Q407.30 85 407.30 90.50L407.30 90.50L407.30 90.50Q407.30 93.40 408.55 93.40L408.55 93.40L408.55 93.40Q409.80 93.40 415.20 90.90L415.20 90.90L417 94.20L417 94.20Q408.10 101.60 400.50 101.60L400.50 101.60L400.50 101.60Q397 101.60 394.75 99.40L394.75 99.40L394.75 99.40Q392.50 97.20 392.50 93.55L392.50 93.55L392.50 93.55Q392.50 89.90 393.35 85.30L393.35 85.30L393.35 85.30Q394.20 80.70 395.70 74.05L395.70 74.05L395.70 74.05Q397.20 67.40 397.90 63.30L397.90 63.30L397.90 63.30Q394.20 63.60 392.40 63.90L392.40 63.90L392.40 63.90Q392.20 62.70 392.20 60.65L392.20 60.65L392.20 60.65Q392.20 58.60 392.50 57.30L392.50 57.30L398.80 57.30L398.80 57.30Q399.60 51.90 399.60 47.10L399.60 47.10L399.50 44L399.50 43.70L399.50 43.70Q407.30 41 414.20 41L414.20 41L414.20 41Q414.60 43 414.60 46L414.60 46L414.60 46Q414.60 49 412.90 57.30L412.90 57.30Z"></path></svg>