<svg xmlns="http://www.w3.org/2000/svg" xmlns:xlink="http://www.w3.org/1999/xlink" style="background-color:transparent" width="468.5546875" height="124.169921875"><path stroke="black" fill="white" d="M34.52 42.48L20.51 42.48L20.51 70.51L34.52 70.51L34.52 70.51Q37.40 70.51 39.94 69.41L39.94 69.41L39.94 69.41Q42.48 68.31 44.38 66.41L44.38 66.41L44.38 66.41Q46.29 64.50 47.39 61.94L47.39 61.94L47.39 61.94Q48.49 59.38 48.49 56.49L48.49 56.49L48.49 56.49Q48.49 53.61 47.39 51.05L47.39 51.05L47.39 51.05Q46.29 48.49 44.38 46.58L44.38 46.58L44.38 46.58Q42.48 44.68 39.94 43.58L39.94 43.58L39.94 43.58Q37.40 42.48 34.52 42.48L34.52 42.48ZM20.51 84.47L20.51 98.49L6.49 98.49L6.49 28.47L34.52 28.47L34.52 28.47Q38.38 28.47 41.94 29.47L41.94 29.47L41.94 29.47Q45.51 30.47 48.61 32.30L48.61 32.30L48.61 32.30Q51.71 34.13 54.27 36.69L54.27 36.69L54.27 36.69Q56.84 39.26 58.67 42.38L58.67 42.38L58.67 42.38Q60.50 45.51 61.50 49.07L61.50 49.07L61.50 49.07Q62.50 52.64 62.50 56.49L62.50 56.49L62.50 56.49Q62.50 60.11 61.60 63.53L61.60 63.53L61.60 63.53Q60.69 66.94 59.01 70.02L59.01 70.02L59.01 70.02Q57.32 73.10 54.88 75.68L54.88 75.68L54.88 75.68Q52.44 78.27 49.41 80.18L49.41 80.18L57.18 98.49L42.29 98.49L36.18 84.38L20.51 84.47Z"></path><path stroke="black" fill="white" d="M85.99 31.98L85.99 31.98L85.99 31.98Q85.99 33.84 85.28 35.45L85.28 35.45L85.28 35.45Q84.57 37.06 83.35 38.26L83.35 38.26L83.35 38.26Q82.13 39.45 80.49 40.16L80.49 40.16L80.49 40.16Q78.86 40.87 77.00 40.87L77.00 40.87L77.00 40.87Q75.15 40.87 73.51 40.16L73.51 40.16L73.51 40.16Q71.88 39.45 70.68 38.26L70.68 38.26L70.68 38.26Q69.48 37.06 68.77 35.45L68.77 35.45L68.77 35.45Q68.07 33.84 68.07 31.98L68.07 31.98L68.07 31.98Q68.07 30.18 68.77 28.54L68.77 28.54L68.77 28.54Q69.48 26.90 70.68 25.71L70.68 25.71L70.68 25.71Q71.88 24.51 73.51 23.80L73.51 23.80L73.51 23.80Q75.15 23.10 77.00 23.10L77.00 23.10L77.00 23.10Q78.86 23.10 80.49 23.80L80.49 23.80L80.49 23.80Q82.13 24.51 83.35 25.71L83.35 25.71L83.35 25.71Q84.57 26.90 85.28 28.54L85.28 28.54L85.28 28.54Q85.99 30.18 85.99 31.98ZM83.69 46.19L83.69 98.49L70.26 98.49L70.26 46.19L83.69 46.19Z"></path><path stroke="black" fill="white" d="M131.05 71.88L131.05 71.88L131.05 71.88Q131.05 69.14 130.00 66.58L130.00 66.58L130.00 66.58Q128.96 64.01 127.15 62.04L127.15 62.04L127.15 62.04Q125.34 60.06 122.92 58.86L122.92 58.86L122.92 58.86Q120.51 57.67 117.77 57.67L117.77 57.67L117.77 57.67Q115.04 57.67 112.62 58.59L112.62 58.59L112.62 58.59Q110.21 59.52 108.42 61.33L108.42 61.33L108.42 61.33Q106.64 63.13 105.62 65.80L105.62 65.80L105.62 65.80Q104.59 68.46 104.59 71.88L104.59 71.88L104.59 71.88Q104.59 75.15 105.62 77.76L105.62 77.76L105.62 77.76Q106.64 80.37 108.42 82.23L108.42 82.23L108.42 82.23Q110.21 84.08 112.62 85.08L112.62 85.08L112.62 85.08Q115.04 86.08 117.77 86.08L117.77 86.08L117.77 86.08Q120.51 86.08 122.92 84.89L122.92 84.89L122.92 84.89Q125.34 83.69 127.15 81.71L127.15 81.71L127.15 81.71Q128.96 79.74 130.00 77.17L130.00 77.17L130.00 77.17Q131.05 74.61 131.05 71.88ZM144.48 46.29L144.48 91.89L144.48 91.89Q144.48 97.41 142.38 102.25L142.38 102.25L142.38 102.25Q140.28 107.08 136.65 110.69L136.65 110.69L136.65 110.69Q133.01 114.31 128.15 116.41L128.15 116.41L128.15 116.41Q123.29 118.51 117.77 118.51L117.77 118.51L111.08 118.41L111.08 105.08L117.68 105.18L117.68 105.18Q120.80 105.18 123.00 104.37L123.00 104.37L123.00 104.37Q125.20 103.56 126.71 102.17L126.71 102.17L126.71 102.17Q128.22 100.78 129.13 98.97L129.13 98.97L129.13 98.97Q130.03 97.17 130.57 95.17L130.57 95.17L130.57 95.17Q129.79 96.44 128.32 97.24L128.32 97.24L128.32 97.24Q126.86 98.05 125.07 98.56L125.07 98.56L125.07 98.56Q123.29 99.07 121.36 99.27L121.36 99.27L121.36 99.27Q119.43 99.46 117.77 99.46L117.77 99.46L117.77 99.46Q112.26 99.46 107.40 97.56L107.40 97.56L107.40 97.56Q102.54 95.65 98.90 92.11L98.90 92.11L98.90 92.11Q95.26 88.57 93.16 83.45L93.16 83.45L93.16 83.45Q91.06 78.32 91.06 71.88L91.06 71.88L91.06 71.88Q91.06 65.97 93.16 60.89L93.16 60.89L93.16 60.89Q95.26 55.81 98.90 52.10L98.90 52.10L98.90 52.10Q102.54 48.39 107.40 46.29L107.40 46.29L107.40 46.29Q112.26 44.19 117.77 44.19L117.77 44.19L117.77 44.19Q120.31 44.19 122.80 44.82L122.80 44.82L122.80 44.82Q125.29 45.46 127.64 46.58L127.64 46.58L127.64 46.58Q129.98 47.71 132.10 49.22L132.10 49.22L132.10 49.22Q134.23 50.73 136.08 52.49L136.08 52.49L141.26 46.29L144.48 46.29Z"></path><path stroke="black" fill="white" d="M167.97 68.60L167.97 98.49L154.64 98.49L154.64 25.39L167.97 25.39L167.97 48.49L167.97 48.49Q170.36 46.68 172.90 45.92L172.90 45.92L172.90 45.92Q175.44 45.17 178.08 45.17L178.08 45.17L178.08 45.17Q182.91 45.17 187.16 47.00L187.16 47.00L187.16 47.00Q191.41 48.83 194.56 52.03L194.56 52.03L194.56 52.03Q197.71 55.22 199.54 59.50L199.54 59.50L199.54 59.50Q201.37 63.77 201.37 68.60L201.37 68.60L201.37 98.49L187.94 98.49L187.94 68.60L188.04 68.60L188.04 68.60Q188.04 66.55 187.26 64.72L187.26 64.72L187.26 64.72Q186.47 62.89 185.11 61.52L185.11 61.52L185.11 61.52Q183.74 60.16 181.93 59.38L181.93 59.38L181.93 59.38Q180.13 58.59 178.08 58.59L178.08 58.59L178.08 58.59Q175.98 58.59 174.12 59.38L174.12 59.38L174.12 59.38Q172.27 60.16 170.90 61.52L170.90 61.52L170.90 61.52Q169.53 62.89 168.75 64.72L168.75 64.72L168.75 64.72Q167.97 66.55 167.97 68.60L167.97 68.60Z"></path><path stroke="black" fill="white" d="M247.17 98.49L237.06 98.49L237.06 98.49Q232.23 98.49 227.98 96.66L227.98 96.66L227.98 96.66Q223.73 94.82 220.53 91.63L220.53 91.63L220.53 91.63Q217.33 88.43 215.50 84.18L215.50 84.18L215.50 84.18Q213.67 79.93 213.67 75.10L213.67 75.10L213.67 59.57L207.18 59.57L207.18 46.29L213.67 46.29L213.67 25.39L226.95 25.39L226.95 46.29L247.17 46.29L247.17 59.57L226.95 59.57L226.95 75.10L226.95 75.10Q226.95 77.20 227.73 79.03L227.73 79.03L227.73 79.03Q228.52 80.86 229.88 82.23L229.88 82.23L229.88 82.23Q231.25 83.59 233.11 84.40L233.11 84.40L233.11 84.40Q234.96 85.21 237.06 85.21L237.06 85.21L247.17 85.21L247.17 98.49Z"></path><path stroke="black" fill="white" d="M300.44 55.57L275.44 85.69L275.44 85.69Q276.22 85.94 277.00 86.01L277.00 86.01L277.00 86.01Q277.78 86.08 278.56 86.08L278.56 86.08L278.56 86.08Q280.52 86.08 282.32 85.55L282.32 85.55L282.32 85.55Q284.13 85.01 285.72 84.01L285.72 84.01L285.72 84.01Q287.30 83.01 288.55 81.57L288.55 81.57L288.55 81.57Q289.79 80.13 290.58 78.37L290.58 78.37L300.34 88.18L300.34 88.18Q298.49 90.82 296.07 92.92L296.07 92.92L296.07 92.92Q293.65 95.02 290.84 96.48L290.84 96.48L290.84 96.48Q288.04 97.95 284.94 98.71L284.94 98.71L284.94 98.71Q281.84 99.46 278.56 99.46L278.56 99.46L278.56 99.46Q273.05 99.46 268.19 97.41L268.19 97.41L268.19 97.41Q263.33 95.36 259.69 91.70L259.69 91.70L259.69 91.70Q256.05 88.04 253.96 82.98L253.96 82.98L253.96 82.98Q251.86 77.93 251.86 71.88L251.86 71.88L251.86 71.88Q251.86 65.67 253.96 60.55L253.96 60.55L253.96 60.55Q256.05 55.42 259.69 51.81L259.69 51.81L259.69 51.81Q263.33 48.19 268.19 46.19L268.19 46.19L268.19 46.19Q273.05 44.19 278.56 44.19L278.56 44.19L278.56 44.19Q281.84 44.19 284.96 44.97L284.96 44.97L284.96 44.97Q288.09 45.75 290.89 47.22L290.89 47.22L290.89 47.22Q293.70 48.68 296.14 50.81L296.14 50.81L296.14 50.81Q298.58 52.93 300.44 55.57L300.44 55.57ZM266.75 78.81L282.28 58.20L282.28 58.20Q281.35 57.86 280.44 57.76L280.44 57.76L280.44 57.76Q279.54 57.67 278.56 57.67L278.56 57.67L278.56 57.67Q275.83 57.67 273.41 58.67L273.41 58.67L273.41 58.67Q271.00 59.67 269.21 61.52L269.21 61.52L269.21 61.52Q267.43 63.38 266.41 65.99L266.41 65.99L266.41 65.99Q265.38 68.60 265.38 71.88L265.38 71.88L265.38 71.88Q265.38 72.61 265.45 73.54L265.45 73.54L265.45 73.54Q265.53 74.46 265.70 75.42L265.70 75.42L265.70 75.42Q265.87 76.37 266.11 77.25L266.11 77.25L266.11 77.25Q266.36 78.13 266.75 78.81L266.75 78.81Z"></path><path stroke="black" fill="white" d="M357.67 71.88L357.67 71.88L357.67 71.88Q357.67 77.73 355.57 82.79L355.57 82.79L355.57 82.79Q353.47 87.84 349.85 91.53L349.85 91.53L349.85 91.53Q346.24 95.21 341.38 97.34L341.38 97.34L341.38 97.34Q336.52 99.46 330.96 99.46L330.96 99.46L330.96 99.46Q325.44 99.46 320.58 97.34L320.58 97.34L320.58 97.34Q315.72 95.21 312.08 91.53L312.08 91.53L312.08 91.53Q308.45 87.84 306.35 82.79L306.35 82.79L306.35 82.79Q304.25 77.73 304.25 71.88L304.25 71.88L304.25 71.88Q304.25 65.92 306.35 60.84L306.35 60.84L306.35 60.84Q308.45 55.76 312.08 52.08L312.08 52.08L312.08 52.08Q315.72 48.39 320.58 46.29L320.58 46.29L320.58 46.29Q325.44 44.19 330.96 44.19L330.96 44.19L330.96 44.19Q336.52 44.19 341.38 46.17L341.38 46.17L341.38 46.17Q346.24 48.14 349.85 51.78L349.85 51.78L349.85 51.78Q353.47 55.42 355.57 60.52L355.57 60.52L355.57 60.52Q357.67 65.63 357.67 71.88ZM344.24 71.88L344.24 71.88L344.24 71.88Q344.24 68.65 343.19 66.04L343.19 66.04L343.19 66.04Q342.14 63.43 340.33 61.55L340.33 61.55L340.33 61.55Q338.53 59.67 336.11 58.67L336.11 58.67L336.11 58.67Q333.69 57.67 330.96 57.67L330.96 57.67L330.96 57.67Q328.22 57.67 325.81 58.67L325.81 58.67L325.81 58.67Q323.39 59.67 321.61 61.55L321.61 61.55L321.61 61.55Q319.82 63.43 318.80 66.04L318.80 66.04L318.80 66.04Q317.77 68.65 317.77 71.88L317.77 71.88L317.77 71.88Q317.77 74.90 318.80 77.49L318.80 77.49L318.80 77.49Q319.82 80.08 321.61 81.98L321.61 81.98L321.61 81.98Q323.39 83.89 325.81 84.99L325.81 84.99L325.81 84.99Q328.22 86.08 330.96 86.08L330.96 86.08L330.96 86.08Q333.69 86.08 336.11 85.06L336.11 85.06L336.11 85.06Q338.53 84.03 340.33 82.18L340.33 82.18L340.33 82.18Q342.14 80.32 343.19 77.69L343.19 77.69L343.19 77.69Q344.24 75.05 344.24 71.88Z"></path><path stroke="black" fill="white" d="M407.86 98.49L403.47 92.38L403.47 92.38Q401.86 93.85 400.02 95.14L400.02 95.14L400.02 95.14Q398.19 96.44 396.19 97.39L396.19 97.39L396.19 97.39Q394.19 98.34 392.07 98.90L392.07 98.90L392.07 98.90Q389.94 99.46 387.74 99.46L387.74 99.46L387.74 99.46Q382.91 99.46 378.66 97.75L378.66 97.75L378.66 97.75Q374.41 96.04 371.22 92.90L371.22 92.90L371.22 92.90Q368.02 89.75 366.19 85.23L366.19 85.23L366.19 85.23Q364.36 80.71 364.36 75.10L364.36 75.10L364.36 46.19L377.64 46.19L377.64 75.10L377.64 75.10Q377.64 77.73 378.44 79.81L378.44 79.81L378.44 79.81Q379.25 81.88 380.62 83.30L380.62 83.30L380.62 83.30Q381.98 84.72 383.81 85.45L383.81 85.45L383.81 85.45Q385.64 86.18 387.74 86.18L387.74 86.18L387.74 86.18Q389.79 86.18 391.63 85.23L391.63 85.23L391.63 85.23Q393.46 84.28 394.82 82.71L394.82 82.71L394.82 82.71Q396.19 81.15 396.97 79.17L396.97 79.17L396.97 79.17Q397.75 77.20 397.75 75.10L397.75 75.10L397.75 46.19L411.08 46.19L411.08 98.49L407.86 98.49Z"></path><path stroke="black" fill="white" d="M449.95 98.49L449.95 98.49L419.48 98.49L419.48 85.21L449.95 85.21L449.95 85.21Q451.32 85.21 452.29 84.23L452.29 84.23L452.29 84.23Q453.27 83.25 453.27 81.88L453.27 81.88L453.27 81.88Q453.27 80.47 452.29 80.03L452.29 80.03L452.29 80.03Q451.32 79.59 449.95 79.59L449.95 79.59L436.08 79.59L436.08 79.59Q432.62 79.59 429.59 78.27L429.59 78.27L429.59 78.27Q426.56 76.95 424.32 74.68L424.32 74.68L424.32 74.68Q422.07 72.41 420.78 69.38L420.78 69.38L420.78 69.38Q419.48 66.36 419.48 62.89L419.48 62.89L419.48 62.89Q419.48 59.42 420.78 56.40L420.78 56.40L420.78 56.40Q422.07 53.37 424.32 51.12L424.32 51.12L424.32 51.12Q426.56 48.88 429.59 47.58L429.59 47.58L429.59 47.58Q432.62 46.29 436.08 46.29L436.08 46.29L463.09 46.29L463.09 59.57L436.08 59.57L436.08 59.57Q434.72 59.57 433.74 60.55L433.74 60.55L433.74 60.55Q432.76 61.52 432.76 62.89L432.76 62.89L432.76 62.89Q432.76 64.31 433.74 65.31L433.74 65.31L433.74 65.31Q434.72 66.31 436.08 66.31L436.08 66.31L449.95 66.31L449.95 66.31Q453.37 66.31 456.40 67.46L456.40 67.46L456.40 67.46Q459.42 68.60 461.67 70.65L461.67 70.65L461.67 70.65Q463.92 72.71 465.23 75.59L465.23 75.59L465.23 75.59Q466.55 78.47 466.55 81.88L466.55 81.88L466.55 81.88Q466.55 85.35 465.23 88.35L465.23 88.35L465.23 88.35Q463.92 91.36 461.67 93.63L461.67 93.63L461.67 93.63Q459.42 95.90 456.40 97.19L456.40 97.19L456.40 97.19Q453.37 98.49 449.95 98.49Z"></path></svg>