<svg xmlns="http://www.w3.org/2000/svg" xmlns:xlink="http://www.w3.org/1999/xlink" style="background-color:transparent" width="321.435546875" height="117.1875"><path stroke="black" fill="white" d="M49.76 92.77L34.33 64.01L17.63 64.01L17.63 92.77L8.20 92.77L8.20 21.68L31.74 21.68L31.74 21.68Q43.75 21.68 50.22 27.15L50.22 27.15L50.22 27.15Q56.69 32.62 56.69 43.07L56.69 43.07L56.69 43.07Q56.69 49.71 53.10 54.64L53.10 54.64L53.10 54.64Q49.51 59.57 43.12 62.01L43.12 62.01L59.81 92.19L59.81 92.77L49.76 92.77ZM17.63 29.39L17.63 56.35L32.03 56.35L32.03 56.35Q39.01 56.35 43.14 52.73L43.14 52.73L43.14 52.73Q47.27 49.12 47.27 43.07L47.27 43.07L47.27 43.07Q47.27 36.47 43.33 32.96L43.33 32.96L43.33 32.96Q39.40 29.44 31.98 29.39L31.98 29.39L17.63 29.39Z"></path><path stroke="black" fill="white" d="M66.02 66.50L66.02 65.87L66.02 65.87Q66.02 58.11 69.07 51.90L69.07 51.90L69.07 51.90Q72.12 45.70 77.56 42.33L77.56 42.33L77.56 42.33Q83.01 38.96 89.99 38.96L89.99 38.96L89.99 38.96Q100.78 38.96 107.45 46.44L107.45 46.44L107.45 46.44Q114.11 53.91 114.11 66.31L114.11 66.31L114.11 66.94L114.11 66.94Q114.11 74.66 111.16 80.79L111.16 80.79L111.16 80.79Q108.20 86.91 102.71 90.33L102.71 90.33L102.71 90.33Q97.22 93.75 90.09 93.75L90.09 93.75L90.09 93.75Q79.35 93.75 72.68 86.28L72.68 86.28L72.68 86.28Q66.02 78.81 66.02 66.50L66.02 66.50ZM75.10 66.94L75.10 66.94L75.10 66.94Q75.10 75.73 79.17 81.05L79.17 81.05L79.17 81.05Q83.25 86.38 90.09 86.38L90.09 86.38L90.09 86.38Q96.97 86.38 101.03 80.98L101.03 80.98L101.03 80.98Q105.08 75.59 105.08 65.87L105.08 65.87L105.08 65.87Q105.08 57.18 100.95 51.78L100.95 51.78L100.95 51.78Q96.83 46.39 89.99 46.39L89.99 46.39L89.99 46.39Q83.30 46.39 79.20 51.71L79.20 51.71L79.20 51.71Q75.10 57.03 75.10 66.94Z"></path><path stroke="black" fill="white" d="M170.17 66.16L170.17 66.94L170.17 66.94Q170.17 79.05 164.60 86.40L164.60 86.40L164.60 86.40Q159.03 93.75 149.66 93.75L149.66 93.75L149.66 93.75Q139.65 93.75 134.18 86.67L134.18 86.67L133.74 92.77L125.44 92.77L125.44 17.77L134.47 17.77L134.47 45.75L134.47 45.75Q139.94 38.96 149.56 38.96L149.56 38.96L149.56 38.96Q159.18 38.96 164.67 46.24L164.67 46.24L164.67 46.24Q170.17 53.52 170.17 66.16L170.17 66.16ZM161.13 65.92L161.13 65.92L161.13 65.92Q161.13 56.69 157.57 51.66L157.57 51.66L157.57 51.66Q154.00 46.63 147.31 46.63L147.31 46.63L147.31 46.63Q138.38 46.63 134.47 54.93L134.47 54.93L134.47 77.78L134.47 77.78Q138.62 86.08 147.41 86.08L147.41 86.08L147.41 86.08Q153.91 86.08 157.52 81.05L157.52 81.05L157.52 81.05Q161.13 76.03 161.13 65.92Z"></path><path stroke="black" fill="white" d="M179.15 66.50L179.15 65.87L179.15 65.87Q179.15 58.11 182.20 51.90L182.20 51.90L182.20 51.90Q185.25 45.70 190.70 42.33L190.70 42.33L190.70 42.33Q196.14 38.96 203.13 38.96L203.13 38.96L203.13 38.96Q213.92 38.96 220.58 46.44L220.58 46.44L220.58 46.44Q227.25 53.91 227.25 66.31L227.25 66.31L227.25 66.94L227.25 66.94Q227.25 74.66 224.29 80.79L224.29 80.79L224.29 80.79Q221.34 86.91 215.84 90.33L215.84 90.33L215.84 90.33Q210.35 93.75 203.22 93.75L203.22 93.75L203.22 93.75Q192.48 93.75 185.82 86.28L185.82 86.28L185.82 86.28Q179.15 78.81 179.15 66.50L179.15 66.50ZM188.23 66.94L188.23 66.94L188.23 66.94Q188.23 75.73 192.31 81.05L192.31 81.05L192.31 81.05Q196.39 86.38 203.22 86.38L203.22 86.38L203.22 86.38Q210.11 86.38 214.16 80.98L214.16 80.98L214.16 80.98Q218.21 75.59 218.21 65.87L218.21 65.87L218.21 65.87Q218.21 57.18 214.09 51.78L214.09 51.78L214.09 51.78Q209.96 46.39 203.13 46.39L203.13 46.39L203.13 46.39Q196.44 46.39 192.33 51.71L192.33 51.71L192.33 51.71Q188.23 57.03 188.23 66.94Z"></path><path stroke="black" fill="white" d="M241.80 27.15L250.83 27.15L250.83 39.94L260.69 39.94L260.69 46.92L250.83 46.92L250.83 79.69L250.83 79.69Q250.83 82.86 252.15 84.45L252.15 84.45L252.15 84.45Q253.47 86.04 256.64 86.04L256.64 86.04L256.64 86.04Q258.20 86.04 260.94 85.45L260.94 85.45L260.94 92.77L260.94 92.77Q257.37 93.75 254.00 93.75L254.00 93.75L254.00 93.75Q247.95 93.75 244.87 90.09L244.87 90.09L244.87 90.09Q241.80 86.43 241.80 79.69L241.80 79.69L241.80 46.92L232.18 46.92L232.18 39.94L241.80 39.94L241.80 27.15Z"></path><path stroke="black" fill="white" d="M268.85 66.50L268.85 65.87L268.85 65.87Q268.85 58.11 271.90 51.90L271.90 51.90L271.90 51.90Q274.95 45.70 280.40 42.33L280.40 42.33L280.40 42.33Q285.84 38.96 292.82 38.96L292.82 38.96L292.82 38.96Q303.61 38.96 310.28 46.44L310.28 46.44L310.28 46.44Q316.94 53.91 316.94 66.31L316.94 66.31L316.94 66.94L316.94 66.94Q316.94 74.66 313.99 80.79L313.99 80.79L313.99 80.79Q311.04 86.91 305.54 90.33L305.54 90.33L305.54 90.33Q300.05 93.75 292.92 93.75L292.92 93.75L292.92 93.75Q282.18 93.75 275.51 86.28L275.51 86.28L275.51 86.28Q268.85 78.81 268.85 66.50L268.85 66.50ZM277.93 66.94L277.93 66.94L277.93 66.94Q277.93 75.73 282.01 81.05L282.01 81.05L282.01 81.05Q286.08 86.38 292.92 86.38L292.92 86.38L292.92 86.38Q299.80 86.38 303.86 80.98L303.86 80.98L303.86 80.98Q307.91 75.59 307.91 65.87L307.91 65.87L307.91 65.87Q307.91 57.18 303.78 51.78L303.78 51.78L303.78 51.78Q299.66 46.39 292.82 46.39L292.82 46.39L292.82 46.39Q286.13 46.39 282.03 51.71L282.03 51.71L282.03 51.71Q277.93 57.03 277.93 66.94Z"></path></svg>